<?xml version="1.0" encoding="utf-8"?>
<!-- Generator: Adobe Illustrator 16.0.4, SVG Export Plug-In . SVG Version: 6.00 Build 0)  -->
<!DOCTYPE svg PUBLIC "-//W3C//DTD SVG 1.1//EN" "http://www.w3.org/Graphics/SVG/1.1/DTD/svg11.dtd">
<svg version="1.1" id="Layer_1" xmlns="http://www.w3.org/2000/svg" xmlns:xlink="http://www.w3.org/1999/xlink" x="0px" y="0px"
	 width="472.799px" height="262.73px" viewBox="169.452 169.064 472.799 262.73"
	 enable-background="new 169.452 169.064 472.799 262.73" xml:space="preserve">
<polygon fill="#FFFFFF" stroke="#000000" stroke-width="3.9" stroke-miterlimit="10" points="484.461,255.382 562.451,210.355 
	640.441,255.382 640.441,345.438 562.451,390.466 484.461,345.438 "/>
<g>
	<path fill="none" stroke="#000000" stroke-width="3" d="M544.51,279.025"/>
	<path fill="none" stroke="#000000" stroke-width="3" d="M496.281,322.767"/>
	<path fill="none" stroke="#000000" stroke-width="3" d="M494.449,322.767c2.197,0.484,6.432-3.21,8.172-4.634
		c2.51-2.049,12.039-11.204,14.434-13.956c2.074-2.381,21.187-21.547,25.336-23.635c3.076-1.541,5.754-2.139,9.154-2.518
		c6.869-0.76,13.137,0.775,18.084,5.492c2.896,2.76,10.523,11.137,11.961,12.988c2.506,3.219,21.631,22.258,24.266,23.812
		c4.019,2.359,8.06,2.854,12.404,2.494c2.238-0.188,10.777-1.088,13.047-1.293"/>
	<path fill="none" stroke="#000000" stroke-width="3" d="M493.359,281.857c2.084-1.406,8.355-2.99,9.778-3.262
		c3.517-0.678,6.466-0.111,9.788,0.861c2.151,0.627,5.637,3.123,7.38,4.549c2.511,2.047,12.41,11.012,14.806,13.762
		c2.073,2.381,21.188,21.547,25.34,23.634c3.076,1.543,5.752,2.139,9.15,2.518c6.872,0.762,13.135-0.775,18.084-5.491
		c2.895-2.758,10.522-11.135,11.961-12.989c2.506-3.215,21.631-22.258,24.266-23.809c2.51-1.477,5.029-2.225,7.631-2.49"/>
	<line fill="none" stroke="#000000" stroke-width="3" x1="500.166" y1="286.15" x2="500.166" y2="311.781"/>
	<line fill="none" stroke="#000000" stroke-width="3" x1="508.178" y1="286.15" x2="508.178" y2="304.46"/>
	<line fill="none" stroke="#000000" stroke-width="3" x1="515.959" y1="287.179" x2="515.959" y2="295.306"/>
	<line fill="none" stroke="#000000" stroke-width="3" x1="543.424" y1="287.179" x2="543.424" y2="295.306"/>
	<line fill="none" stroke="#000000" stroke-width="3" x1="550.748" y1="286.15" x2="550.748" y2="304.46"/>
	<line fill="none" stroke="#000000" stroke-width="3" x1="558.758" y1="286.15" x2="558.758" y2="311.781"/>
	<line fill="none" stroke="#000000" stroke-width="3" x1="566.311" y1="289.582" x2="566.311" y2="315.443"/>
	<line fill="none" stroke="#000000" stroke-width="3" x1="573.633" y1="297.363" x2="573.633" y2="315.443"/>
	<line fill="none" stroke="#000000" stroke-width="3" x1="581.414" y1="306.402" x2="581.414" y2="313.613"/>
	<line fill="none" stroke="#000000" stroke-width="3" x1="609.105" y1="306.402" x2="609.105" y2="313.613"/>
	<line fill="none" stroke="#000000" stroke-width="3" x1="617.35" y1="297.363" x2="617.35" y2="315.443"/>
	<line fill="none" stroke="#000000" stroke-width="3" x1="625.129" y1="289.582" x2="625.129" y2="315.443"/>
</g>
<polygon fill="#FFFFFF" stroke="#000000" stroke-width="3.9" stroke-miterlimit="10" points="171.279,255.382 249.269,210.355 
	327.258,255.382 327.258,345.438 249.269,390.466 171.279,345.438 "/>
<path fill="none" stroke="#000000" stroke-width="3" stroke-miterlimit="10" d="M186.118,305.716l4.775,4.935l19.892,0.092
	c1.345-2.019,3.644-3.344,6.254-3.344c2.691,0,5.057,1.418,6.385,3.545l20.092,0.16c1.427-4.593,5.093-8.198,9.72-9.545
	l0.015-19.787c-1.025-1.029-1.664-2.449-1.664-4.02c0-3.135,2.543-5.678,5.678-5.678l0.413,0.018l16.956-17.375
	c-0.021-0.209-0.031-0.422-0.031-0.637c0-3.449,2.794-6.242,6.243-6.242c3.449,0,6.243,2.793,6.243,6.242
	c0,3.447-2.794,6.244-6.243,6.244c-0.062,0,0,0,0,0l-17.91,17.078c0.009,0.115,0.011,0.234,0.011,0.35
	c0,1.529-0.604,2.914-1.583,3.938l-0.069,19.869c5.989,1.74,10.367,7.27,10.367,13.827c0,2.457-0.614,4.771-1.701,6.796l0.23,0.257
	l9.254,9.645c2.729,0.246,4.867,2.541,4.867,5.336c0,2.957-2.399,5.357-5.356,5.357c-2.874,0-5.213-2.261-5.351-5.097l-9.685-9.526
	c-1.989,1.039-4.253,1.627-6.655,1.627c-6.684,0-12.306-4.562-13.925-10.737l-20.064,0.08c-1.351,2-3.639,3.314-6.235,3.314
	c-2.61,0-4.905-1.322-6.254-3.339l-27.896,0.086"/>
<polygon fill="#FFFFFF" stroke="#000000" stroke-width="3.9" stroke-miterlimit="10" points="327.871,255.382 405.861,210.355 
	483.851,255.382 483.851,345.438 405.857,390.466 327.869,345.438 "/>
<g>
	<polyline fill="none" stroke="#000000" stroke-miterlimit="10" points="380.1,271.707 338.52,271.707 338.52,264.559 
		380.1,264.559 	"/>
	<polyline fill="none" stroke="#000000" stroke-miterlimit="10" points="387.8,264.559 473.2,264.559 473.2,271.707 387.8,271.707 	
		"/>
	<polygon fill="none" stroke="#000000" stroke-miterlimit="10" points="387.704,264.559 380.302,271.707 380.1,271.707 
		380.1,264.559 380.327,264.559 387.711,271.707 387.8,271.707 387.8,264.559 	"/>
</g>
<rect x="339.028" y="323.167" stroke="#000000" stroke-miterlimit="10" width="2.641" height="12.666"/>
<rect x="386.007" y="324.167" stroke="#000000" stroke-miterlimit="10" width="2.154" height="11.666"/>
<rect x="382.614" y="318.547" stroke="#000000" stroke-miterlimit="10" width="2.64" height="17.286"/>
<rect x="379.465" y="313.748" stroke="#000000" stroke-miterlimit="10" width="2.64" height="22.085"/>
<rect x="376.315" y="316.883" stroke="#000000" stroke-miterlimit="10" width="2.64" height="18.95"/>
<rect x="373.165" y="312.502" stroke="#000000" stroke-miterlimit="10" width="2.641" height="23.331"/>
<rect x="370.016" y="315.227" stroke="#000000" stroke-miterlimit="10" width="2.641" height="20.606"/>
<rect x="366.866" y="319.346" stroke="#000000" stroke-miterlimit="10" width="2.64" height="16.487"/>
<rect x="363.717" y="313.373" stroke="#000000" stroke-miterlimit="10" width="2.64" height="22.46"/>
<rect x="360.566" y="316.883" stroke="#000000" stroke-miterlimit="10" width="2.641" height="18.95"/>
<rect x="357.417" y="323.167" stroke="#000000" stroke-miterlimit="10" width="2.641" height="12.666"/>
<rect x="354.268" y="318.723" stroke="#000000" stroke-miterlimit="10" width="2.64" height="17.11"/>
<rect x="351.118" y="316.289" stroke="#000000" stroke-miterlimit="10" width="2.64" height="19.544"/>
<rect x="347.968" y="320.641" stroke="#000000" stroke-miterlimit="10" width="2.641" height="15.192"/>
<rect x="344.818" y="319.998" stroke="#000000" stroke-miterlimit="10" width="2.641" height="15.835"/>
<rect x="341.669" y="316.883" stroke="#000000" stroke-miterlimit="10" width="2.64" height="18.95"/>
<rect x="435.916" y="323.167" stroke="#000000" stroke-miterlimit="10" width="2.641" height="12.666"/>
<rect x="407.476" y="315.227" stroke="#000000" stroke-miterlimit="10" width="2.153" height="19.983"/>
<rect x="404.331" y="317.924" stroke="#000000" stroke-miterlimit="10" width="2.64" height="17.286"/>
<rect x="401.431" y="313.125" stroke="#000000" stroke-miterlimit="10" width="2.641" height="22.085"/>
<rect x="398.529" y="319.346" stroke="#000000" stroke-miterlimit="10" width="2.641" height="15.864"/>
<rect x="470.562" y="324.167" stroke="#000000" stroke-miterlimit="10" width="2.641" height="11.666"/>
<rect x="467.413" y="315.227" stroke="#000000" stroke-miterlimit="10" width="2.641" height="20.606"/>
<rect x="464.263" y="318.547" stroke="#000000" stroke-miterlimit="10" width="2.642" height="17.286"/>
<rect x="461.114" y="320.641" stroke="#000000" stroke-miterlimit="10" width="2.639" height="15.192"/>
<rect x="457.964" y="316.883" stroke="#000000" stroke-miterlimit="10" width="2.642" height="18.95"/>
<rect x="454.812" y="323.167" stroke="#000000" stroke-miterlimit="10" width="2.642" height="12.666"/>
<rect x="451.665" y="318.723" stroke="#000000" stroke-miterlimit="10" width="2.639" height="17.11"/>
<rect x="448.515" y="320.641" stroke="#000000" stroke-miterlimit="10" width="2.642" height="15.192"/>
<rect x="445.364" y="316.289" stroke="#000000" stroke-miterlimit="10" width="2.641" height="19.544"/>
<rect x="442.217" y="313.373" stroke="#000000" stroke-miterlimit="10" width="2.641" height="22.46"/>
<rect x="439.065" y="316.883" stroke="#000000" stroke-miterlimit="10" width="2.641" height="18.95"/>
<rect x="410.376" y="323.544" stroke="#000000" stroke-miterlimit="10" width="2.153" height="11.666"/>
<rect x="338.52" y="335.046" width="134.683" height="1.574"/>
<g>
	<rect x="357.17" y="289.273" stroke="#000000" stroke-miterlimit="10" width="30.991" height="7.147"/>
	<rect x="398.529" y="289.273" stroke="#000000" stroke-miterlimit="10" width="14.778" height="7.146"/>
	<rect x="435.916" y="289.273" stroke="#000000" stroke-miterlimit="10" width="28.444" height="7.146"/>
	<rect x="388.161" y="292.06" width="10.368" height="1.573"/>
	<rect x="413.309" y="292.059" width="22.607" height="1.574"/>
	<rect x="338.52" y="291.527" stroke="#000000" stroke-miterlimit="10" width="18.388" height="2.64"/>
	<rect x="464.36" y="291.526" stroke="#000000" stroke-miterlimit="10" width="8.84" height="2.641"/>
</g>
<text transform="matrix(0.7725 0 0 1 169.4521 431.7949)" font-family="'Courier-Bold'" font-size="40" letter-spacing="7.767">OMNIA OMNI TEMPORE</text>
<text transform="matrix(0.7725 0 0 1 208.8555 192.6523)" font-family="'Courier-Bold'" font-size="40" letter-spacing="7.767">HESSELBERTH LAB</text>
</svg>
