<?xml version="1.0" encoding="utf-8"?>
<!-- Generator: Adobe Illustrator 16.0.4, SVG Export Plug-In . SVG Version: 6.00 Build 0)  -->
<!DOCTYPE svg PUBLIC "-//W3C//DTD SVG 1.1//EN" "http://www.w3.org/Graphics/SVG/1.1/DTD/svg11.dtd">
<svg version="1.1" id="Layer_1" xmlns="http://www.w3.org/2000/svg" xmlns:xlink="http://www.w3.org/1999/xlink" x="0px" y="0px"
	 width="472.799px" height="262.73px" viewBox="0 0 472.799 262.73" enable-background="new 0 0 472.799 262.73"
	 xml:space="preserve">
<g>
	<polygon fill="none" stroke="#000000" stroke-width="3.9" stroke-miterlimit="10" points="315,86.317 392.99,41.291 470.98,86.317 
		470.98,176.373 392.99,221.401 315,176.373 	"/>
	<g>
		<path fill="none" stroke="#000000" stroke-width="3" d="M375.049,109.961"/>
		<path fill="none" stroke="#000000" stroke-width="3" d="M326.819,153.702"/>
		<path fill="none" stroke="#000000" stroke-width="3" d="M324.987,153.702c2.197,0.484,6.433-3.21,8.173-4.634
			c2.51-2.049,12.039-11.204,14.434-13.956c2.074-2.381,21.188-21.547,25.337-23.635c3.075-1.541,5.754-2.141,9.153-2.52
			c6.869-0.76,13.138,0.774,18.084,5.492c2.896,2.76,10.522,11.137,11.961,12.987c2.506,3.22,21.631,22.258,24.266,23.812
			c4.021,2.358,8.062,2.854,12.404,2.493c2.238-0.188,10.777-1.088,13.047-1.293"/>
		<path fill="none" stroke="#000000" stroke-width="3" d="M323.897,112.793c2.084-1.404,8.354-2.988,9.777-3.262
			c3.518-0.679,6.467-0.111,9.788,0.86c2.151,0.627,5.638,3.123,7.38,4.549c2.512,2.047,12.41,11.013,14.807,13.763
			c2.072,2.381,21.188,21.547,25.341,23.634c3.075,1.543,5.753,2.141,9.149,2.52c6.871,0.762,13.137-0.775,18.084-5.491
			c2.896-2.758,10.521-11.135,11.961-12.988c2.508-3.215,21.633-22.258,24.268-23.81c2.51-1.479,5.028-2.227,7.631-2.489"/>
		<line fill="none" stroke="#000000" stroke-width="3" x1="330.705" y1="117.086" x2="330.705" y2="142.717"/>
		<line fill="none" stroke="#000000" stroke-width="3" x1="338.717" y1="117.086" x2="338.717" y2="135.395"/>
		<line fill="none" stroke="#000000" stroke-width="3" x1="346.498" y1="118.115" x2="346.498" y2="126.242"/>
		<line fill="none" stroke="#000000" stroke-width="3" x1="373.963" y1="118.115" x2="373.963" y2="126.242"/>
		<line fill="none" stroke="#000000" stroke-width="3" x1="381.287" y1="117.086" x2="381.287" y2="135.395"/>
		<line fill="none" stroke="#000000" stroke-width="3" x1="389.297" y1="117.086" x2="389.297" y2="142.717"/>
		<line fill="none" stroke="#000000" stroke-width="3" x1="396.85" y1="120.517" x2="396.85" y2="146.379"/>
		<line fill="none" stroke="#000000" stroke-width="3" x1="404.172" y1="128.299" x2="404.172" y2="146.379"/>
		<line fill="none" stroke="#000000" stroke-width="3" x1="411.953" y1="137.338" x2="411.953" y2="144.549"/>
		<line fill="none" stroke="#000000" stroke-width="3" x1="439.645" y1="137.338" x2="439.645" y2="144.549"/>
		<line fill="none" stroke="#000000" stroke-width="3" x1="447.889" y1="128.299" x2="447.889" y2="146.379"/>
		<line fill="none" stroke="#000000" stroke-width="3" x1="455.668" y1="120.517" x2="455.668" y2="146.379"/>
	</g>
	<polygon fill="none" stroke="#000000" stroke-width="3.9" stroke-miterlimit="10" points="1.818,86.317 79.809,41.291 
		157.797,86.317 157.797,176.373 79.809,221.401 1.818,176.373 	"/>
	<path fill="none" stroke="#000000" stroke-width="3" stroke-miterlimit="10" d="M16.657,136.651l4.775,4.936l19.892,0.094
		c1.345-2.021,3.644-3.346,6.254-3.346c2.691,0,5.057,1.418,6.385,3.545l20.094,0.16c1.426-4.594,5.092-8.198,9.719-9.545
		l0.016-19.787c-1.024-1.027-1.664-2.449-1.664-4.021c0-3.137,2.543-5.68,5.678-5.68l0.413,0.02l16.956-17.375
		c-0.021-0.209-0.03-0.422-0.03-0.637c0-3.449,2.795-6.242,6.243-6.242c3.448,0,6.242,2.793,6.242,6.242
		c0,3.445-2.794,6.242-6.242,6.242c-0.062,0,0,0,0,0l-17.909,17.078c0.008,0.115,0.01,0.234,0.01,0.352
		c0,1.527-0.604,2.914-1.582,3.938l-0.069,19.869c5.989,1.739,10.367,7.271,10.367,13.826c0,2.457-0.614,4.771-1.701,6.796
		l0.229,0.258l9.254,9.646c2.729,0.246,4.867,2.541,4.867,5.336c0,2.957-2.398,5.355-5.355,5.355c-2.874,0-5.213-2.262-5.352-5.098
		l-9.686-9.525c-1.989,1.039-4.253,1.627-6.655,1.627c-6.684,0-12.306-4.562-13.925-10.735l-20.063,0.08
		c-1.352,2-3.64,3.312-6.235,3.312c-2.61,0-4.905-1.321-6.254-3.339l-27.896,0.086"/>
	<polygon fill="none" stroke="#000000" stroke-width="3.9" stroke-miterlimit="10" points="158.41,86.317 236.4,41.291 
		314.392,86.317 314.392,176.373 236.397,221.401 158.408,176.373 	"/>
	<g>
		<polyline fill="none" stroke="#000000" stroke-miterlimit="10" points="210.641,102.642 169.061,102.642 169.061,95.495 
			210.641,95.495 		"/>
		<polyline fill="none" stroke="#000000" stroke-miterlimit="10" points="218.339,95.495 303.737,95.495 303.737,102.642 
			218.339,102.642 		"/>
		<polygon fill="none" stroke="#000000" stroke-miterlimit="10" points="218.243,95.495 210.841,102.642 210.641,102.642 
			210.641,95.495 210.866,95.495 218.25,102.642 218.339,102.642 218.339,95.495 		"/>
	</g>
	<rect x="169.567" y="154.102" stroke="#000000" stroke-miterlimit="10" width="2.641" height="12.666"/>
	<rect x="216.546" y="155.102" stroke="#000000" stroke-miterlimit="10" width="2.154" height="11.666"/>
	<rect x="213.153" y="149.482" stroke="#000000" stroke-miterlimit="10" width="2.64" height="17.286"/>
	<rect x="210.004" y="144.683" stroke="#000000" stroke-miterlimit="10" width="2.641" height="22.085"/>
	<rect x="206.855" y="147.818" stroke="#000000" stroke-miterlimit="10" width="2.64" height="18.95"/>
	<rect x="203.704" y="143.437" stroke="#000000" stroke-miterlimit="10" width="2.641" height="23.331"/>
	<rect x="200.556" y="146.162" stroke="#000000" stroke-miterlimit="10" width="2.642" height="20.606"/>
	<rect x="197.405" y="150.281" stroke="#000000" stroke-miterlimit="10" width="2.64" height="16.487"/>
	<rect x="194.256" y="144.308" stroke="#000000" stroke-miterlimit="10" width="2.641" height="22.46"/>
	<rect x="191.105" y="147.818" stroke="#000000" stroke-miterlimit="10" width="2.642" height="18.95"/>
	<rect x="187.956" y="154.102" stroke="#000000" stroke-miterlimit="10" width="2.641" height="12.666"/>
	<rect x="184.809" y="149.658" stroke="#000000" stroke-miterlimit="10" width="2.64" height="17.11"/>
	<rect x="181.657" y="147.224" stroke="#000000" stroke-miterlimit="10" width="2.64" height="19.544"/>
	<rect x="178.507" y="151.576" stroke="#000000" stroke-miterlimit="10" width="2.642" height="15.192"/>
	<rect x="175.357" y="150.933" stroke="#000000" stroke-miterlimit="10" width="2.642" height="15.835"/>
	<rect x="172.208" y="147.818" stroke="#000000" stroke-miterlimit="10" width="2.642" height="18.95"/>
	<rect x="266.455" y="154.102" stroke="#000000" stroke-miterlimit="10" width="2.642" height="12.666"/>
	<rect x="238.017" y="146.162" stroke="#000000" stroke-miterlimit="10" width="2.151" height="19.983"/>
	<rect x="234.87" y="148.859" stroke="#000000" stroke-miterlimit="10" width="2.64" height="17.286"/>
	<rect x="231.97" y="144.06" stroke="#000000" stroke-miterlimit="10" width="2.643" height="22.085"/>
	<rect x="229.068" y="150.281" stroke="#000000" stroke-miterlimit="10" width="2.641" height="15.864"/>
	<rect x="301.103" y="155.102" stroke="#000000" stroke-miterlimit="10" width="2.642" height="11.666"/>
	<rect x="297.952" y="146.162" stroke="#000000" stroke-miterlimit="10" width="2.641" height="20.606"/>
	<rect x="294.802" y="149.482" stroke="#000000" stroke-miterlimit="10" width="2.645" height="17.286"/>
	<rect x="291.651" y="151.576" stroke="#000000" stroke-miterlimit="10" width="2.641" height="15.192"/>
	<rect x="288.503" y="147.818" stroke="#000000" stroke-miterlimit="10" width="2.645" height="18.95"/>
	<rect x="285.353" y="154.102" stroke="#000000" stroke-miterlimit="10" width="2.643" height="12.666"/>
	<rect x="282.204" y="149.658" stroke="#000000" stroke-miterlimit="10" width="2.639" height="17.11"/>
	<rect x="279.054" y="151.576" stroke="#000000" stroke-miterlimit="10" width="2.645" height="15.192"/>
	<rect x="275.901" y="147.224" stroke="#000000" stroke-miterlimit="10" width="2.643" height="19.544"/>
	<rect x="272.756" y="144.308" stroke="#000000" stroke-miterlimit="10" width="2.644" height="22.46"/>
	<rect x="269.604" y="147.818" stroke="#000000" stroke-miterlimit="10" width="2.642" height="18.95"/>
	<rect x="240.915" y="154.479" stroke="#000000" stroke-miterlimit="10" width="2.152" height="11.666"/>
	<rect x="169.061" y="165.981" width="134.683" height="1.574"/>
	<g>
		<rect x="187.709" y="120.209" stroke="#000000" stroke-miterlimit="10" width="30.991" height="7.146"/>
		<rect x="229.068" y="120.209" stroke="#000000" stroke-miterlimit="10" width="14.776" height="7.146"/>
		<rect x="266.455" y="120.209" stroke="#000000" stroke-miterlimit="10" width="28.442" height="7.146"/>
		<rect x="218.7" y="122.996" width="10.368" height="1.572"/>
		<rect x="243.849" y="122.995" width="22.606" height="1.573"/>
		<rect x="169.061" y="122.463" stroke="#000000" stroke-miterlimit="10" width="18.388" height="2.642"/>
		<rect x="294.897" y="122.462" stroke="#000000" stroke-miterlimit="10" width="8.84" height="2.643"/>
	</g>
</g>
<g enable-background="new    ">
	<path d="M34.002,238.922c2.474,0,4.511,1.146,6.11,3.438c1.599,2.292,2.399,5.215,2.399,8.77c0,3.581-0.794,6.511-2.384,8.789
		c-1.589,2.279-3.631,3.418-6.125,3.418c-2.465,0-4.501-1.148-6.111-3.447c-1.609-2.298-2.414-5.218-2.414-8.76
		c0-3.567,0.797-6.494,2.392-8.779C29.463,240.064,31.507,238.922,34.002,238.922z M34.002,243.453
		c-1.298,0-2.316,0.678-3.056,2.031c-0.739,1.354-1.109,3.236-1.109,5.645c0,2.409,0.372,4.297,1.117,5.664
		c0.744,1.367,1.76,2.051,3.048,2.051c1.297,0,2.318-0.68,3.062-2.041c0.745-1.36,1.117-3.252,1.117-5.674
		c0-2.408-0.37-4.29-1.109-5.645C36.333,244.131,35.31,243.453,34.002,243.453z"/>
	<path d="M56.562,252.73l2.882-11.074c0.181-0.729,0.433-1.26,0.754-1.592s0.75-0.498,1.283-0.498h2.354
		c0.684,0,1.174,0.17,1.471,0.508c0.296,0.339,0.445,0.893,0.445,1.66c0,0.703-0.143,1.237-0.43,1.602
		c-0.287,0.365-0.702,0.547-1.245,0.547h-0.242l0.422,14.57h0.257c0.543,0,0.95,0.18,1.222,0.537
		c0.271,0.358,0.407,0.883,0.407,1.572c0,0.769-0.144,1.322-0.43,1.66c-0.287,0.339-0.772,0.508-1.456,0.508h-3.395
		c-0.684,0-1.169-0.166-1.456-0.498s-0.43-0.889-0.43-1.67c0-0.689,0.138-1.214,0.415-1.572c0.276-0.357,0.687-0.537,1.229-0.537
		h0.242l-0.211-11.914l-2.203,8.867c-0.161,0.664-0.39,1.143-0.687,1.436c-0.297,0.293-0.707,0.439-1.229,0.439
		c-0.523,0-0.938-0.146-1.245-0.439s-0.541-0.771-0.702-1.436l-2.188-8.867l-0.211,11.914h0.242c0.543,0,0.953,0.18,1.229,0.537
		c0.276,0.358,0.415,0.883,0.415,1.572c0,0.769-0.146,1.322-0.438,1.66c-0.292,0.339-0.775,0.508-1.449,0.508h-3.41
		c-0.674,0-1.157-0.169-1.448-0.508c-0.292-0.338-0.438-0.892-0.438-1.66c0-0.689,0.138-1.214,0.415-1.572
		c0.277-0.357,0.687-0.537,1.23-0.537h0.241l0.438-14.57h-0.241c-0.543,0-0.958-0.182-1.245-0.547
		c-0.287-0.364-0.43-0.898-0.43-1.602c0-0.768,0.148-1.321,0.445-1.66c0.297-0.338,0.787-0.508,1.471-0.508h2.354
		c0.523,0,0.943,0.163,1.26,0.488c0.317,0.326,0.576,0.859,0.777,1.602L56.562,252.73z"/>
	<path d="M82.561,254.644v-10.762h-0.83c-0.664,0-1.139-0.169-1.426-0.508c-0.287-0.338-0.43-0.885-0.43-1.641
		c0-0.755,0.144-1.305,0.43-1.65c0.287-0.345,0.762-0.518,1.426-0.518h4.285c0.653,0,1.126,0.173,1.418,0.518
		c0.292,0.346,0.438,0.896,0.438,1.65c0,0.69-0.138,1.221-0.415,1.592c-0.276,0.371-0.671,0.557-1.184,0.557h-0.256v17.734
		c0,0.612-0.051,0.996-0.151,1.152s-0.327,0.234-0.679,0.234h-1.509c-0.483,0-0.822-0.065-1.019-0.195
		c-0.196-0.13-0.365-0.357-0.505-0.684l-6.276-14.277v10.605h0.875c0.654,0,1.122,0.163,1.403,0.488
		c0.281,0.326,0.422,0.866,0.422,1.621c0,0.769-0.144,1.322-0.43,1.66c-0.287,0.339-0.752,0.508-1.396,0.508h-4.33
		c-0.654,0-1.127-0.169-1.418-0.508c-0.292-0.338-0.438-0.892-0.438-1.66c0-0.689,0.136-1.214,0.407-1.572
		c0.271-0.357,0.674-0.537,1.207-0.537h0.242v-14.57H72.18c-0.513,0-0.91-0.186-1.192-0.557s-0.422-0.901-0.422-1.592
		c0-0.755,0.148-1.305,0.445-1.65c0.297-0.345,0.767-0.518,1.411-0.518h2.474c0.593,0,0.996,0.102,1.207,0.303
		c0.211,0.202,0.448,0.609,0.709,1.221L82.561,254.644z"/>
	<path d="M103.536,243.883v14.57h2.535c0.684,0,1.174,0.166,1.471,0.498c0.296,0.332,0.445,0.869,0.445,1.611
		c0,0.756-0.151,1.306-0.453,1.65c-0.302,0.346-0.79,0.518-1.463,0.518h-8.962c-0.684,0-1.174-0.169-1.471-0.508
		c-0.297-0.338-0.445-0.892-0.445-1.66c0-0.755,0.146-1.295,0.438-1.621c0.292-0.325,0.785-0.488,1.479-0.488h2.535v-14.57h-2.535
		c-0.684,0-1.174-0.169-1.471-0.508c-0.297-0.338-0.445-0.885-0.445-1.641c0-0.768,0.146-1.314,0.438-1.641
		c0.292-0.325,0.785-0.488,1.479-0.488h8.962c0.714,0,1.212,0.163,1.494,0.488c0.281,0.326,0.422,0.873,0.422,1.641
		c0,0.756-0.146,1.303-0.438,1.641c-0.292,0.339-0.785,0.508-1.479,0.508H103.536z"/>
	<path d="M131.723,258.453h0.257c0.543,0,0.955,0.18,1.237,0.537c0.282,0.358,0.422,0.883,0.422,1.572
		c0,0.769-0.148,1.322-0.445,1.66c-0.297,0.339-0.787,0.508-1.471,0.508h-4.542c-0.694,0-1.187-0.166-1.479-0.498
		c-0.292-0.332-0.438-0.889-0.438-1.67c0-0.755,0.146-1.295,0.438-1.621c0.292-0.325,0.785-0.488,1.479-0.488h0.528l-0.619-2.285
		h-6.518l-0.649,2.285h0.528c0.684,0,1.174,0.166,1.471,0.498c0.296,0.332,0.445,0.869,0.445,1.611c0,0.769-0.148,1.322-0.445,1.66
		c-0.297,0.339-0.787,0.508-1.471,0.508h-3.893c-0.694,0-1.187-0.169-1.479-0.508c-0.292-0.338-0.438-0.892-0.438-1.66
		c0-0.689,0.141-1.214,0.423-1.572c0.281-0.357,0.694-0.537,1.237-0.537h0.257l4.043-14.57h-1.207c-0.684,0-1.174-0.169-1.471-0.508
		c-0.297-0.338-0.445-0.885-0.445-1.641c0-0.768,0.148-1.321,0.445-1.66c0.297-0.338,0.787-0.508,1.471-0.508h5.658
		c0.896,0,1.524,0.625,1.886,1.875v0.059L131.723,258.453z M123.817,243.883l-2.188,8.242h4.375L123.817,243.883z"/>
	<path d="M169.177,238.922c2.474,0,4.511,1.146,6.11,3.438c1.599,2.292,2.399,5.215,2.399,8.77c0,3.581-0.794,6.511-2.384,8.789
		c-1.589,2.279-3.631,3.418-6.125,3.418c-2.465,0-4.501-1.148-6.111-3.447c-1.609-2.298-2.414-5.218-2.414-8.76
		c0-3.567,0.797-6.494,2.392-8.779C164.638,240.064,166.682,238.922,169.177,238.922z M169.177,243.453
		c-1.298,0-2.316,0.678-3.056,2.031c-0.739,1.354-1.109,3.236-1.109,5.645c0,2.409,0.372,4.297,1.117,5.664
		c0.744,1.367,1.76,2.051,3.048,2.051c1.297,0,2.318-0.68,3.062-2.041c0.745-1.36,1.117-3.252,1.117-5.674
		c0-2.408-0.37-4.29-1.109-5.645C171.508,244.131,170.484,243.453,169.177,243.453z"/>
	<path d="M191.736,252.73l2.882-11.074c0.181-0.729,0.433-1.26,0.754-1.592s0.75-0.498,1.283-0.498h2.354
		c0.684,0,1.174,0.17,1.471,0.508c0.296,0.339,0.445,0.893,0.445,1.66c0,0.703-0.143,1.237-0.43,1.602
		c-0.287,0.365-0.702,0.547-1.245,0.547h-0.242l0.422,14.57h0.257c0.543,0,0.95,0.18,1.222,0.537
		c0.271,0.358,0.407,0.883,0.407,1.572c0,0.769-0.144,1.322-0.43,1.66c-0.287,0.339-0.772,0.508-1.456,0.508h-3.395
		c-0.684,0-1.169-0.166-1.456-0.498s-0.43-0.889-0.43-1.67c0-0.689,0.138-1.214,0.415-1.572c0.276-0.357,0.687-0.537,1.229-0.537
		h0.242l-0.211-11.914l-2.203,8.867c-0.161,0.664-0.39,1.143-0.687,1.436c-0.297,0.293-0.707,0.439-1.229,0.439
		c-0.523,0-0.938-0.146-1.245-0.439s-0.541-0.771-0.702-1.436l-2.188-8.867l-0.211,11.914h0.242c0.543,0,0.953,0.18,1.229,0.537
		c0.276,0.358,0.415,0.883,0.415,1.572c0,0.769-0.146,1.322-0.438,1.66c-0.292,0.339-0.775,0.508-1.449,0.508h-3.41
		c-0.674,0-1.157-0.169-1.448-0.508c-0.292-0.338-0.438-0.892-0.438-1.66c0-0.689,0.138-1.214,0.415-1.572
		c0.277-0.357,0.687-0.537,1.23-0.537h0.241l0.438-14.57h-0.241c-0.543,0-0.958-0.182-1.245-0.547
		c-0.287-0.364-0.43-0.898-0.43-1.602c0-0.768,0.148-1.321,0.445-1.66c0.297-0.338,0.787-0.508,1.471-0.508h2.354
		c0.523,0,0.943,0.163,1.26,0.488c0.317,0.326,0.576,0.859,0.777,1.602L191.736,252.73z"/>
	<path d="M217.735,254.644v-10.762h-0.83c-0.664,0-1.139-0.169-1.426-0.508c-0.287-0.338-0.43-0.885-0.43-1.641
		c0-0.755,0.144-1.305,0.43-1.65c0.287-0.345,0.762-0.518,1.426-0.518h4.285c0.653,0,1.126,0.173,1.418,0.518
		c0.292,0.346,0.438,0.896,0.438,1.65c0,0.69-0.138,1.221-0.415,1.592c-0.276,0.371-0.671,0.557-1.184,0.557h-0.256v17.734
		c0,0.612-0.051,0.996-0.151,1.152s-0.327,0.234-0.679,0.234h-1.509c-0.483,0-0.822-0.065-1.019-0.195
		c-0.196-0.13-0.365-0.357-0.505-0.684l-6.276-14.277v10.605h0.875c0.654,0,1.122,0.163,1.403,0.488
		c0.281,0.326,0.422,0.866,0.422,1.621c0,0.769-0.144,1.322-0.43,1.66c-0.287,0.339-0.752,0.508-1.396,0.508h-4.33
		c-0.654,0-1.127-0.169-1.418-0.508c-0.292-0.338-0.438-0.892-0.438-1.66c0-0.689,0.136-1.214,0.407-1.572
		c0.271-0.357,0.674-0.537,1.207-0.537h0.242v-14.57h-0.242c-0.513,0-0.91-0.186-1.192-0.557s-0.422-0.901-0.422-1.592
		c0-0.755,0.148-1.305,0.445-1.65c0.297-0.345,0.767-0.518,1.411-0.518h2.474c0.593,0,0.996,0.102,1.207,0.303
		c0.211,0.202,0.448,0.609,0.709,1.221L217.735,254.644z"/>
	<path d="M238.711,243.883v14.57h2.534c0.685,0,1.175,0.166,1.472,0.498c0.296,0.332,0.444,0.869,0.444,1.611
		c0,0.756-0.15,1.306-0.452,1.65c-0.302,0.346-0.79,0.518-1.464,0.518h-8.962c-0.684,0-1.174-0.169-1.471-0.508
		c-0.297-0.338-0.445-0.892-0.445-1.66c0-0.755,0.146-1.295,0.438-1.621c0.292-0.325,0.785-0.488,1.479-0.488h2.535v-14.57h-2.535
		c-0.684,0-1.174-0.169-1.471-0.508c-0.297-0.338-0.445-0.885-0.445-1.641c0-0.768,0.146-1.314,0.438-1.641
		c0.292-0.325,0.785-0.488,1.479-0.488h8.962c0.715,0,1.213,0.163,1.494,0.488c0.281,0.326,0.422,0.873,0.422,1.641
		c0,0.756-0.146,1.303-0.438,1.641c-0.291,0.339-0.784,0.508-1.479,0.508H238.711z"/>
	<path d="M286.923,243.844h-3.154v14.57h2.535c0.674,0,1.156,0.17,1.448,0.508c0.292,0.339,0.438,0.886,0.438,1.641
		c0,0.769-0.146,1.322-0.438,1.66c-0.292,0.339-0.774,0.508-1.448,0.508h-8.963c-0.663,0-1.141-0.169-1.433-0.508
		c-0.292-0.338-0.438-0.892-0.438-1.66c0-0.768,0.144-1.318,0.43-1.65s0.767-0.498,1.44-0.498h2.535v-14.57h-3.153l-0.091,3.965
		v0.488c0,0.625-0.133,1.113-0.399,1.465s-0.636,0.527-1.108,0.527c-0.564,0-0.979-0.186-1.245-0.557s-0.399-0.96-0.399-1.768
		v-0.156l0.166-5.84c0.029-1.158,0.152-1.855,0.369-2.09s0.656-0.352,1.32-0.352h12.976c0.663,0,1.104,0.117,1.319,0.352
		c0.217,0.234,0.346,0.932,0.385,2.09l0.151,5.84v0.156c0,0.82-0.126,1.413-0.377,1.777c-0.251,0.365-0.659,0.547-1.222,0.547
		c-0.544,0-0.934-0.179-1.17-0.537c-0.236-0.357-0.365-1.006-0.385-1.943L286.923,243.844z"/>
	<path d="M308.683,243.687h-7.017v5h2.655v-0.234c0-0.742,0.126-1.295,0.377-1.66c0.252-0.364,0.635-0.547,1.147-0.547
		c0.452,0,0.822,0.166,1.108,0.498c0.287,0.332,0.431,0.752,0.431,1.26c0,0.026,0.005,0.111,0.015,0.254
		c0.01,0.144,0.016,0.287,0.016,0.43v4.043c0,0.873-0.121,1.498-0.362,1.875c-0.241,0.378-0.634,0.566-1.177,0.566
		c-0.514,0-0.9-0.176-1.162-0.527s-0.393-0.872-0.393-1.562v-0.352h-2.655v5.84h7.017v-2.324c0-0.872,0.128-1.497,0.385-1.875
		c0.256-0.377,0.676-0.566,1.26-0.566c0.572,0,0.982,0.186,1.229,0.557c0.247,0.371,0.37,1,0.37,1.885v4.727
		c0,0.703-0.105,1.172-0.316,1.406c-0.212,0.234-0.629,0.352-1.253,0.352H298c-0.664,0-1.14-0.169-1.426-0.508
		c-0.286-0.338-0.431-0.892-0.431-1.66c0-0.689,0.137-1.214,0.408-1.572c0.271-0.357,0.668-0.537,1.191-0.537H298v-14.57h-0.257
		c-0.513,0-0.908-0.186-1.184-0.557c-0.277-0.371-0.416-0.901-0.416-1.592c0-0.755,0.146-1.305,0.438-1.65
		c0.292-0.345,0.765-0.518,1.419-0.518h12.356c0.613,0,1.029,0.121,1.245,0.361c0.216,0.241,0.324,0.72,0.324,1.436v4.375
		c0,0.886-0.126,1.521-0.377,1.904c-0.251,0.385-0.659,0.576-1.222,0.576c-0.584,0-1.004-0.195-1.26-0.586
		c-0.257-0.391-0.385-1.021-0.385-1.895V243.687z"/>
	<path d="M326.911,252.73l2.881-11.074c0.182-0.729,0.434-1.26,0.755-1.592s0.749-0.498,1.282-0.498h2.354
		c0.685,0,1.175,0.17,1.472,0.508c0.296,0.339,0.444,0.893,0.444,1.66c0,0.703-0.143,1.237-0.43,1.602
		c-0.286,0.365-0.701,0.547-1.244,0.547h-0.242l0.423,14.57h0.257c0.543,0,0.95,0.18,1.223,0.537
		c0.271,0.358,0.406,0.883,0.406,1.572c0,0.769-0.143,1.322-0.43,1.66c-0.287,0.339-0.771,0.508-1.456,0.508h-3.395
		c-0.685,0-1.169-0.166-1.456-0.498s-0.43-0.889-0.43-1.67c0-0.689,0.138-1.214,0.414-1.572c0.277-0.357,0.688-0.537,1.23-0.537
		h0.241l-0.212-11.914l-2.202,8.867c-0.161,0.664-0.39,1.143-0.687,1.436s-0.707,0.439-1.229,0.439
		c-0.523,0-0.938-0.146-1.245-0.439s-0.541-0.771-0.701-1.436l-2.188-8.867l-0.212,11.914h0.241c0.543,0,0.953,0.18,1.23,0.537
		c0.275,0.358,0.414,0.883,0.414,1.572c0,0.769-0.146,1.322-0.438,1.66c-0.291,0.339-0.774,0.508-1.448,0.508h-3.409
		c-0.674,0-1.157-0.169-1.449-0.508c-0.291-0.338-0.438-0.892-0.438-1.66c0-0.689,0.139-1.214,0.415-1.572
		c0.276-0.357,0.687-0.537,1.229-0.537h0.242l0.438-14.57h-0.242c-0.543,0-0.957-0.182-1.244-0.547
		c-0.287-0.364-0.43-0.898-0.43-1.602c0-0.768,0.147-1.321,0.444-1.66c0.297-0.338,0.787-0.508,1.472-0.508h2.354
		c0.522,0,0.943,0.163,1.26,0.488c0.316,0.326,0.576,0.859,0.777,1.602L326.911,252.73z"/>
	<path d="M347.373,254.449v4.004h1.554c0.654,0,1.119,0.163,1.396,0.488c0.275,0.326,0.414,0.866,0.414,1.621
		c0,0.769-0.141,1.322-0.422,1.66c-0.281,0.339-0.744,0.508-1.389,0.508h-5.221c-0.663,0-1.139-0.169-1.426-0.508
		c-0.286-0.338-0.43-0.892-0.43-1.66c0-0.689,0.137-1.214,0.408-1.572c0.271-0.357,0.668-0.537,1.191-0.537h0.256v-14.57h-0.256
		c-0.514,0-0.908-0.186-1.185-0.557s-0.415-0.901-0.415-1.592c0-0.755,0.146-1.305,0.438-1.65c0.292-0.345,0.765-0.518,1.418-0.518
		h6.232c2.464,0,4.327,0.612,5.59,1.836c1.262,1.225,1.893,3.027,1.893,5.41c0,2.514-0.628,4.414-1.885,5.703
		c-1.258,1.289-3.123,1.934-5.598,1.934H347.373z M347.373,243.883v6.172h2.143c1.187,0,2.079-0.26,2.679-0.781
		c0.598-0.521,0.896-1.302,0.896-2.344c0-0.977-0.309-1.729-0.928-2.256c-0.618-0.527-1.501-0.791-2.647-0.791H347.373z"/>
	<path d="M371.938,238.922c2.475,0,4.512,1.146,6.111,3.438c1.599,2.292,2.398,5.215,2.398,8.77c0,3.581-0.795,6.511-2.384,8.789
		c-1.589,2.279-3.632,3.418-6.126,3.418c-2.465,0-4.501-1.148-6.11-3.447c-1.609-2.298-2.414-5.218-2.414-8.76
		c0-3.567,0.797-6.494,2.392-8.779C367.399,240.064,369.444,238.922,371.938,238.922z M371.938,243.453
		c-1.297,0-2.316,0.678-3.055,2.031c-0.74,1.354-1.109,3.236-1.109,5.645c0,2.409,0.372,4.297,1.117,5.664
		c0.744,1.367,1.76,2.051,3.047,2.051c1.298,0,2.318-0.68,3.062-2.041c0.745-1.36,1.117-3.252,1.117-5.674
		c0-2.408-0.369-4.29-1.109-5.645C374.271,244.131,373.246,243.453,371.938,243.453z"/>
	<path d="M398.24,252.086c0.262,0.209,0.518,0.586,0.77,1.133c0.04,0.078,0.075,0.144,0.105,0.195l2.459,5.039h0.166h0.302
		c0.583,0,1.023,0.176,1.32,0.527s0.445,0.879,0.445,1.582c0,0.769-0.148,1.322-0.445,1.66c-0.297,0.339-0.787,0.508-1.471,0.508
		h-1.856c-0.684,0-1.217-0.384-1.599-1.152l-0.046-0.039l-3.696-7.363c-0.141-0.286-0.302-0.504-0.482-0.654
		c-0.182-0.149-0.373-0.225-0.574-0.225h-1.418v5.156h0.242c0.543,0,0.952,0.18,1.229,0.537c0.277,0.358,0.416,0.883,0.416,1.572
		c0,0.769-0.145,1.322-0.431,1.66c-0.286,0.339-0.772,0.508-1.456,0.508h-3.893c-0.674,0-1.156-0.169-1.448-0.508
		c-0.292-0.338-0.438-0.892-0.438-1.66c0-0.689,0.138-1.214,0.415-1.572c0.276-0.357,0.682-0.537,1.215-0.537h0.256v-14.57h-0.256
		c-0.523,0-0.926-0.186-1.207-0.557c-0.282-0.371-0.423-0.901-0.423-1.592c0-0.755,0.147-1.305,0.444-1.65
		c0.297-0.345,0.777-0.518,1.441-0.518h6.955c2.133,0,3.747,0.537,4.844,1.611s1.645,2.66,1.645,4.756
		c0,1.459-0.305,2.722-0.913,3.789C400.249,250.791,399.377,251.578,398.24,252.086z M392.039,243.765v5.527h2.036
		c1.258,0,2.138-0.211,2.641-0.635c0.503-0.423,0.755-1.129,0.755-2.119c0-0.977-0.229-1.683-0.687-2.119
		c-0.458-0.436-1.195-0.654-2.211-0.654H392.039z"/>
	<path d="M421.327,243.687h-7.016v5h2.655v-0.234c0-0.742,0.126-1.295,0.378-1.66c0.251-0.364,0.634-0.547,1.146-0.547
		c0.452,0,0.822,0.166,1.108,0.498c0.287,0.332,0.431,0.752,0.431,1.26c0,0.026,0.005,0.111,0.015,0.254
		c0.01,0.144,0.016,0.287,0.016,0.43v4.043c0,0.873-0.121,1.498-0.362,1.875c-0.241,0.378-0.634,0.566-1.177,0.566
		c-0.514,0-0.9-0.176-1.162-0.527s-0.393-0.872-0.393-1.562v-0.352h-2.655v5.84h7.016v-2.324c0-0.872,0.129-1.497,0.385-1.875
		c0.257-0.377,0.677-0.566,1.26-0.566c0.574,0,0.983,0.186,1.23,0.557c0.246,0.371,0.369,1,0.369,1.885v4.727
		c0,0.703-0.105,1.172-0.316,1.406c-0.212,0.234-0.629,0.352-1.253,0.352h-12.356c-0.664,0-1.14-0.169-1.426-0.508
		c-0.287-0.338-0.43-0.892-0.43-1.66c0-0.689,0.136-1.214,0.407-1.572c0.271-0.357,0.669-0.537,1.191-0.537h0.257v-14.57h-0.257
		c-0.513,0-0.907-0.186-1.185-0.557c-0.276-0.371-0.414-0.901-0.414-1.592c0-0.755,0.146-1.305,0.438-1.65
		c0.291-0.345,0.764-0.518,1.418-0.518h12.356c0.614,0,1.028,0.121,1.245,0.361c0.216,0.241,0.324,0.72,0.324,1.436v4.375
		c0,0.886-0.126,1.521-0.377,1.904c-0.252,0.385-0.659,0.576-1.223,0.576c-0.583,0-1.003-0.195-1.26-0.586
		c-0.256-0.391-0.385-1.021-0.385-1.895V243.687z"/>
</g>
<g enable-background="new    ">
	<path d="M66.82,4.74v4.492h4.934V4.74h-0.241c-0.543,0-0.958-0.182-1.245-0.547c-0.287-0.364-0.43-0.898-0.43-1.602
		c0-0.768,0.148-1.321,0.445-1.66c0.297-0.338,0.787-0.508,1.471-0.508h3.893c0.684,0,1.169,0.169,1.456,0.508
		c0.287,0.339,0.43,0.892,0.43,1.66c0,0.703-0.139,1.237-0.415,1.602C76.84,4.558,76.436,4.74,75.903,4.74h-0.257v14.57h0.257
		c0.543,0,0.956,0.179,1.237,0.537c0.281,0.358,0.422,0.882,0.422,1.572c0,0.769-0.146,1.322-0.438,1.66
		c-0.292,0.339-0.785,0.508-1.479,0.508h-3.893c-0.694,0-1.187-0.166-1.479-0.498c-0.292-0.332-0.438-0.889-0.438-1.67
		c0-0.69,0.143-1.214,0.43-1.572c0.287-0.358,0.701-0.537,1.245-0.537h0.241v-5.762H66.82v5.762h0.241
		c0.543,0,0.958,0.179,1.245,0.537c0.287,0.358,0.43,0.882,0.43,1.572c0,0.769-0.148,1.322-0.445,1.66
		c-0.297,0.339-0.787,0.508-1.471,0.508h-3.893c-0.694,0-1.187-0.166-1.479-0.498c-0.292-0.332-0.438-0.889-0.438-1.67
		c0-0.69,0.141-1.214,0.423-1.572c0.281-0.358,0.694-0.537,1.237-0.537h0.257V4.74H62.67c-0.533,0-0.938-0.182-1.214-0.547
		c-0.277-0.364-0.415-0.898-0.415-1.602c0-0.768,0.144-1.321,0.43-1.66c0.287-0.338,0.772-0.508,1.456-0.508h3.893
		c0.674,0,1.162,0.169,1.463,0.508c0.302,0.339,0.453,0.892,0.453,1.66c0,0.703-0.143,1.237-0.43,1.602
		c-0.287,0.365-0.702,0.547-1.245,0.547H66.82z"/>
	<path d="M96.139,4.545h-7.016v5h2.656V9.31c0-0.742,0.125-1.295,0.377-1.66c0.251-0.364,0.634-0.547,1.147-0.547
		c0.453,0,0.822,0.166,1.109,0.498s0.43,0.752,0.43,1.26c0,0.026,0.005,0.111,0.015,0.254c0.01,0.144,0.015,0.287,0.015,0.43v4.043
		c0,0.873-0.121,1.498-0.362,1.875c-0.242,0.378-0.634,0.566-1.177,0.566c-0.513,0-0.9-0.176-1.162-0.527s-0.392-0.872-0.392-1.562
		v-0.352h-2.656v5.84h7.016v-2.324c0-0.872,0.128-1.497,0.385-1.875c0.256-0.377,0.676-0.566,1.26-0.566
		c0.573,0,0.983,0.186,1.229,0.557s0.37,1,0.37,1.885v4.727c0,0.703-0.105,1.172-0.316,1.406c-0.211,0.234-0.629,0.352-1.252,0.352
		H85.457c-0.664,0-1.139-0.169-1.426-0.508c-0.287-0.338-0.43-0.892-0.43-1.66c0-0.69,0.136-1.214,0.407-1.572
		c0.272-0.358,0.669-0.537,1.192-0.537h0.257V4.74H85.2c-0.513,0-0.908-0.186-1.184-0.557c-0.277-0.371-0.415-0.901-0.415-1.592
		c0-0.755,0.146-1.305,0.438-1.65c0.292-0.345,0.764-0.518,1.418-0.518h12.357c0.613,0,1.028,0.121,1.245,0.361
		c0.216,0.241,0.324,0.72,0.324,1.436v4.375c0,0.886-0.125,1.521-0.377,1.904c-0.251,0.384-0.659,0.576-1.222,0.576
		c-0.583,0-1.003-0.195-1.26-0.586s-0.385-1.022-0.385-1.895V4.545z"/>
	<path d="M118.109,0.873c0.151-0.417,0.322-0.703,0.513-0.859s0.483-0.234,0.875-0.234c0.583,0,0.958,0.14,1.124,0.42
		c0.166,0.28,0.259,0.837,0.279,1.67l0.061,3.75v0.215c0,0.769-0.119,1.306-0.354,1.611c-0.237,0.306-0.637,0.459-1.2,0.459
		c-0.714,0-1.248-0.495-1.599-1.484c-0.051-0.143-0.091-0.26-0.121-0.352c-0.312-0.807-0.734-1.416-1.267-1.826
		c-0.533-0.41-1.162-0.615-1.886-0.615c-0.905,0-1.637,0.271-2.195,0.811c-0.558,0.541-0.837,1.234-0.837,2.08
		c0,1.198,1.277,2.142,3.833,2.832c0.432,0.117,0.774,0.208,1.026,0.273c1.931,0.547,3.329,1.38,4.194,2.5
		c0.865,1.12,1.298,2.65,1.298,4.59c0,2.396-0.629,4.242-1.886,5.537c-1.257,1.296-3.058,1.943-5.401,1.943
		c-0.916,0-1.733-0.078-2.452-0.234c-0.719-0.156-1.416-0.397-2.09-0.723c-0.161,0.339-0.347,0.583-0.558,0.732
		c-0.211,0.149-0.503,0.225-0.875,0.225c-0.634,0-1.077-0.156-1.328-0.469s-0.382-0.866-0.392-1.66l-0.06-4.59V17.26
		c0-0.859,0.123-1.458,0.37-1.797c0.246-0.338,0.676-0.508,1.29-0.508c0.654,0,1.202,0.612,1.645,1.836
		c0.1,0.3,0.181,0.527,0.241,0.684c0.392,1.003,0.938,1.751,1.637,2.246c0.699,0.495,1.556,0.742,2.572,0.742
		c0.925,0,1.645-0.247,2.158-0.742c0.513-0.495,0.77-1.191,0.77-2.09c0-1.393-1.162-2.448-3.485-3.164
		c-0.694-0.208-1.243-0.384-1.645-0.527c-1.952-0.664-3.304-1.494-4.059-2.49s-1.132-2.36-1.132-4.092
		c0-2.227,0.646-4.046,1.939-5.459c1.292-1.413,2.965-2.119,5.017-2.119c0.684,0,1.355,0.091,2.014,0.273
		C116.799,0.235,117.455,0.509,118.109,0.873z"/>
	<path d="M140.639,0.873c0.151-0.417,0.322-0.703,0.513-0.859s0.483-0.234,0.875-0.234c0.583,0,0.958,0.14,1.124,0.42
		c0.166,0.28,0.259,0.837,0.279,1.67l0.061,3.75v0.215c0,0.769-0.119,1.306-0.354,1.611c-0.237,0.306-0.637,0.459-1.2,0.459
		c-0.714,0-1.248-0.495-1.599-1.484c-0.051-0.143-0.091-0.26-0.121-0.352c-0.312-0.807-0.734-1.416-1.267-1.826
		c-0.533-0.41-1.162-0.615-1.886-0.615c-0.905,0-1.637,0.271-2.195,0.811c-0.558,0.541-0.837,1.234-0.837,2.08
		c0,1.198,1.277,2.142,3.833,2.832c0.432,0.117,0.774,0.208,1.026,0.273c1.931,0.547,3.329,1.38,4.194,2.5
		c0.865,1.12,1.298,2.65,1.298,4.59c0,2.396-0.629,4.242-1.886,5.537c-1.257,1.296-3.058,1.943-5.401,1.943
		c-0.916,0-1.733-0.078-2.452-0.234c-0.719-0.156-1.416-0.397-2.09-0.723c-0.161,0.339-0.347,0.583-0.558,0.732
		c-0.211,0.149-0.503,0.225-0.875,0.225c-0.634,0-1.077-0.156-1.328-0.469s-0.382-0.866-0.392-1.66l-0.06-4.59V17.26
		c0-0.859,0.123-1.458,0.37-1.797c0.246-0.338,0.676-0.508,1.29-0.508c0.654,0,1.202,0.612,1.645,1.836
		c0.1,0.3,0.181,0.527,0.241,0.684c0.392,1.003,0.938,1.751,1.637,2.246c0.699,0.495,1.556,0.742,2.572,0.742
		c0.925,0,1.645-0.247,2.158-0.742c0.513-0.495,0.77-1.191,0.77-2.09c0-1.393-1.162-2.448-3.485-3.164
		c-0.694-0.208-1.243-0.384-1.645-0.527c-1.952-0.664-3.304-1.494-4.059-2.49s-1.132-2.36-1.132-4.092
		c0-2.227,0.646-4.046,1.939-5.459c1.292-1.413,2.965-2.119,5.017-2.119c0.684,0,1.355,0.091,2.014,0.273
		C139.328,0.235,139.984,0.509,140.639,0.873z"/>
	<path d="M163.726,4.545h-7.016v5h2.656V9.31c0-0.742,0.125-1.295,0.377-1.66c0.251-0.364,0.634-0.547,1.147-0.547
		c0.453,0,0.822,0.166,1.109,0.498s0.43,0.752,0.43,1.26c0,0.026,0.005,0.111,0.015,0.254c0.01,0.144,0.015,0.287,0.015,0.43v4.043
		c0,0.873-0.121,1.498-0.362,1.875c-0.242,0.378-0.634,0.566-1.177,0.566c-0.513,0-0.9-0.176-1.162-0.527s-0.392-0.872-0.392-1.562
		v-0.352h-2.656v5.84h7.016v-2.324c0-0.872,0.128-1.497,0.385-1.875c0.256-0.377,0.676-0.566,1.26-0.566
		c0.573,0,0.983,0.186,1.229,0.557s0.37,1,0.37,1.885v4.727c0,0.703-0.105,1.172-0.316,1.406c-0.211,0.234-0.629,0.352-1.252,0.352
		h-12.357c-0.664,0-1.139-0.169-1.426-0.508c-0.287-0.338-0.43-0.892-0.43-1.66c0-0.69,0.136-1.214,0.407-1.572
		c0.272-0.358,0.669-0.537,1.192-0.537h0.257V4.74h-0.257c-0.513,0-0.908-0.186-1.184-0.557c-0.277-0.371-0.415-0.901-0.415-1.592
		c0-0.755,0.146-1.305,0.438-1.65c0.292-0.345,0.764-0.518,1.418-0.518h12.357c0.613,0,1.028,0.121,1.245,0.361
		c0.216,0.241,0.324,0.72,0.324,1.436v4.375c0,0.886-0.125,1.521-0.377,1.904c-0.251,0.384-0.659,0.576-1.222,0.576
		c-0.583,0-1.003-0.195-1.26-0.586s-0.385-1.022-0.385-1.895V4.545z"/>
	<path d="M180.295,4.74v14.57h6.865v-3.477c0-0.898,0.123-1.536,0.37-1.914c0.246-0.377,0.656-0.566,1.229-0.566
		s0.991,0.192,1.252,0.576c0.261,0.384,0.392,1.019,0.392,1.904v5.996c0,0.703-0.105,1.172-0.316,1.406
		c-0.211,0.234-0.634,0.352-1.268,0.352h-13.685c-0.654,0-1.122-0.169-1.403-0.508c-0.282-0.338-0.422-0.892-0.422-1.66
		c0-0.755,0.138-1.295,0.415-1.621c0.277-0.325,0.747-0.488,1.411-0.488h1.328V4.74h-1.328c-0.654,0-1.122-0.169-1.403-0.508
		c-0.282-0.338-0.422-0.885-0.422-1.641c0-0.755,0.148-1.305,0.445-1.65c0.297-0.345,0.767-0.518,1.411-0.518h6.428
		c0.644,0,1.114,0.173,1.411,0.518c0.296,0.345,0.445,0.896,0.445,1.65c0,0.755-0.146,1.302-0.438,1.641
		c-0.292,0.339-0.764,0.508-1.418,0.508H180.295z"/>
	<path d="M209.523,11.302c1.096,0.521,1.901,1.234,2.414,2.139c0.513,0.905,0.77,2.061,0.77,3.467c0,1.185-0.221,2.266-0.664,3.242
		c-0.442,0.977-1.076,1.777-1.901,2.402c-0.483,0.365-1.023,0.628-1.622,0.791c-0.599,0.163-1.446,0.244-2.542,0.244h-1.268h-6.608
		c-0.664,0-1.139-0.169-1.426-0.508c-0.287-0.338-0.43-0.892-0.43-1.66c0-0.69,0.137-1.214,0.411-1.572
		c0.274-0.358,0.674-0.537,1.202-0.537h0.259V4.74h-0.259c-0.527,0-0.928-0.182-1.202-0.547c-0.274-0.364-0.411-0.898-0.411-1.602
		c0-0.755,0.146-1.305,0.438-1.65c0.292-0.345,0.764-0.518,1.418-0.518h6.94c2.122,0,3.734,0.534,4.835,1.602
		c1.102,1.068,1.652,2.63,1.652,4.688c0,1.016-0.169,1.911-0.505,2.686C210.688,10.173,210.188,10.808,209.523,11.302z
		 M201.829,4.623v4.922h2.037c1.237,0,2.109-0.188,2.618-0.566c0.508-0.377,0.762-1.016,0.762-1.914
		c0-0.846-0.229-1.465-0.687-1.855s-1.199-0.586-2.226-0.586H201.829z M201.829,13.47v5.957h2.263c1.599,0,2.726-0.228,3.38-0.684
		c0.653-0.456,0.98-1.217,0.98-2.285c0-1.081-0.312-1.849-0.936-2.305c-0.624-0.456-1.715-0.684-3.274-0.684H201.829z"/>
	<path d="M231.313,4.545h-7.016v5h2.656V9.31c0-0.742,0.125-1.295,0.377-1.66c0.251-0.364,0.634-0.547,1.147-0.547
		c0.453,0,0.822,0.166,1.109,0.498s0.43,0.752,0.43,1.26c0,0.026,0.005,0.111,0.015,0.254c0.01,0.144,0.015,0.287,0.015,0.43v4.043
		c0,0.873-0.121,1.498-0.362,1.875c-0.242,0.378-0.634,0.566-1.177,0.566c-0.513,0-0.9-0.176-1.162-0.527s-0.392-0.872-0.392-1.562
		v-0.352h-2.656v5.84h7.016v-2.324c0-0.872,0.128-1.497,0.385-1.875c0.256-0.377,0.676-0.566,1.26-0.566
		c0.573,0,0.983,0.186,1.229,0.557s0.37,1,0.37,1.885v4.727c0,0.703-0.105,1.172-0.316,1.406c-0.211,0.234-0.629,0.352-1.252,0.352
		h-12.357c-0.664,0-1.139-0.169-1.426-0.508c-0.287-0.338-0.43-0.892-0.43-1.66c0-0.69,0.136-1.214,0.407-1.572
		c0.272-0.358,0.669-0.537,1.192-0.537h0.257V4.74h-0.257c-0.513,0-0.908-0.186-1.184-0.557c-0.277-0.371-0.415-0.901-0.415-1.592
		c0-0.755,0.146-1.305,0.438-1.65c0.292-0.345,0.764-0.518,1.418-0.518h12.357c0.613,0,1.028,0.121,1.245,0.361
		c0.216,0.241,0.324,0.72,0.324,1.436v4.375c0,0.886-0.125,1.521-0.377,1.904c-0.251,0.384-0.659,0.576-1.222,0.576
		c-0.583,0-1.003-0.195-1.26-0.586s-0.385-1.022-0.385-1.895V4.545z"/>
	<path d="M253.284,12.943c0.262,0.208,0.518,0.586,0.77,1.133c0.04,0.078,0.075,0.144,0.105,0.195l2.459,5.039h0.166h0.302
		c0.583,0,1.023,0.176,1.32,0.527s0.445,0.879,0.445,1.582c0,0.769-0.148,1.322-0.445,1.66c-0.297,0.339-0.787,0.508-1.472,0.508
		h-1.855c-0.684,0-1.217-0.384-1.6-1.152l-0.045-0.039l-3.696-7.363c-0.142-0.286-0.302-0.504-0.483-0.654
		c-0.181-0.149-0.371-0.225-0.572-0.225h-1.419v5.156h0.241c0.543,0,0.953,0.179,1.23,0.537c0.276,0.358,0.414,0.882,0.414,1.572
		c0,0.769-0.143,1.322-0.43,1.66c-0.287,0.339-0.771,0.508-1.456,0.508h-3.893c-0.674,0-1.157-0.169-1.448-0.508
		c-0.292-0.338-0.438-0.892-0.438-1.66c0-0.69,0.139-1.214,0.415-1.572c0.276-0.358,0.681-0.537,1.214-0.537h0.257V4.74h-0.257
		c-0.522,0-0.926-0.186-1.207-0.557s-0.422-0.901-0.422-1.592c0-0.755,0.148-1.305,0.445-1.65c0.297-0.345,0.777-0.518,1.44-0.518
		h6.956c2.132,0,3.746,0.537,4.843,1.611s1.645,2.66,1.645,4.756c0,1.458-0.304,2.722-0.913,3.789
		C255.293,11.648,254.421,12.435,253.284,12.943z M247.083,4.623v5.527h2.037c1.257,0,2.137-0.211,2.641-0.635
		c0.502-0.423,0.754-1.129,0.754-2.119c0-0.977-0.229-1.683-0.687-2.119c-0.458-0.436-1.194-0.654-2.21-0.654H247.083z"/>
	<path d="M277.142,4.701h-3.154v14.57h2.535c0.674,0,1.156,0.169,1.448,0.508c0.292,0.339,0.438,0.886,0.438,1.641
		c0,0.769-0.146,1.322-0.438,1.66c-0.292,0.339-0.774,0.508-1.448,0.508h-8.963c-0.663,0-1.141-0.169-1.433-0.508
		c-0.292-0.338-0.438-0.892-0.438-1.66c0-0.768,0.144-1.318,0.43-1.65s0.767-0.498,1.44-0.498h2.535V4.701h-3.153l-0.091,3.965
		v0.488c0,0.625-0.133,1.113-0.399,1.465s-0.636,0.527-1.108,0.527c-0.564,0-0.979-0.186-1.245-0.557s-0.399-0.96-0.399-1.768V8.666
		l0.166-5.84c0.029-1.159,0.152-1.855,0.369-2.09s0.656-0.352,1.32-0.352h12.976c0.663,0,1.104,0.117,1.319,0.352
		c0.217,0.234,0.346,0.931,0.385,2.09l0.151,5.84v0.156c0,0.82-0.126,1.413-0.377,1.777c-0.251,0.365-0.659,0.547-1.222,0.547
		c-0.544,0-0.934-0.179-1.17-0.537c-0.236-0.358-0.365-1.006-0.385-1.943L277.142,4.701z"/>
	<path d="M292.11,4.74v4.492h4.934V4.74h-0.24c-0.544,0-0.959-0.182-1.245-0.547c-0.287-0.364-0.431-0.898-0.431-1.602
		c0-0.768,0.148-1.321,0.445-1.66c0.297-0.338,0.787-0.508,1.471-0.508h3.893c0.685,0,1.17,0.169,1.457,0.508
		c0.286,0.339,0.43,0.892,0.43,1.66c0,0.703-0.139,1.237-0.415,1.602c-0.276,0.365-0.682,0.547-1.214,0.547h-0.258v14.57h0.258
		c0.543,0,0.955,0.179,1.236,0.537c0.281,0.358,0.423,0.882,0.423,1.572c0,0.769-0.146,1.322-0.438,1.66
		c-0.292,0.339-0.784,0.508-1.479,0.508h-3.893c-0.693,0-1.187-0.166-1.479-0.498c-0.291-0.332-0.438-0.889-0.438-1.67
		c0-0.69,0.144-1.214,0.431-1.572c0.286-0.358,0.701-0.537,1.245-0.537h0.24v-5.762h-4.934v5.762h0.242
		c0.543,0,0.957,0.179,1.244,0.537c0.287,0.358,0.43,0.882,0.43,1.572c0,0.769-0.148,1.322-0.444,1.66
		c-0.297,0.339-0.787,0.508-1.472,0.508h-3.893c-0.693,0-1.187-0.166-1.479-0.498c-0.291-0.332-0.438-0.889-0.438-1.67
		c0-0.69,0.141-1.214,0.423-1.572c0.281-0.358,0.694-0.537,1.237-0.537h0.256V4.74h-0.256c-0.533,0-0.938-0.182-1.215-0.547
		c-0.277-0.364-0.415-0.898-0.415-1.602c0-0.768,0.144-1.321,0.431-1.66c0.286-0.338,0.771-0.508,1.455-0.508h3.893
		c0.674,0,1.162,0.169,1.464,0.508c0.302,0.339,0.452,0.892,0.452,1.66c0,0.703-0.143,1.237-0.43,1.602
		c-0.287,0.365-0.701,0.547-1.244,0.547H292.11z"/>
	<path d="M337.999,4.74v14.57h6.865v-3.477c0-0.898,0.123-1.536,0.369-1.914c0.246-0.377,0.656-0.566,1.229-0.566
		s0.991,0.192,1.253,0.576c0.261,0.384,0.392,1.019,0.392,1.904v5.996c0,0.703-0.105,1.172-0.316,1.406
		c-0.212,0.234-0.634,0.352-1.268,0.352h-13.685c-0.654,0-1.122-0.169-1.403-0.508c-0.282-0.338-0.423-0.892-0.423-1.66
		c0-0.755,0.139-1.295,0.415-1.621c0.276-0.325,0.747-0.488,1.411-0.488h1.328V4.74h-1.328c-0.654,0-1.122-0.169-1.403-0.508
		c-0.282-0.338-0.423-0.885-0.423-1.641c0-0.755,0.148-1.305,0.445-1.65c0.297-0.345,0.768-0.518,1.41-0.518h6.428
		c0.645,0,1.114,0.173,1.411,0.518c0.296,0.345,0.445,0.896,0.445,1.65c0,0.755-0.146,1.302-0.438,1.641
		c-0.291,0.339-0.764,0.508-1.418,0.508H337.999z"/>
	<path d="M369.762,19.31h0.257c0.543,0,0.955,0.179,1.236,0.537c0.282,0.358,0.423,0.882,0.423,1.572
		c0,0.769-0.148,1.322-0.444,1.66c-0.297,0.339-0.787,0.508-1.472,0.508h-4.542c-0.693,0-1.187-0.166-1.479-0.498
		c-0.291-0.332-0.438-0.889-0.438-1.67c0-0.755,0.146-1.295,0.438-1.621c0.292-0.325,0.785-0.488,1.479-0.488h0.529l-0.619-2.285
		h-6.518l-0.649,2.285h0.528c0.684,0,1.174,0.166,1.471,0.498s0.445,0.869,0.445,1.611c0,0.769-0.148,1.322-0.445,1.66
		c-0.297,0.339-0.787,0.508-1.471,0.508h-3.893c-0.694,0-1.188-0.169-1.479-0.508c-0.292-0.338-0.438-0.892-0.438-1.66
		c0-0.69,0.141-1.214,0.422-1.572c0.281-0.358,0.694-0.537,1.237-0.537h0.257l4.043-14.57h-1.207c-0.684,0-1.174-0.169-1.471-0.508
		c-0.297-0.338-0.445-0.885-0.445-1.641c0-0.768,0.148-1.321,0.445-1.66c0.297-0.338,0.787-0.508,1.471-0.508h5.658
		c0.896,0,1.523,0.625,1.887,1.875v0.059L369.762,19.31z M361.856,4.74l-2.188,8.242h4.376L361.856,4.74z"/>
	<path d="M389.757,11.302c1.096,0.521,1.9,1.234,2.414,2.139c0.513,0.905,0.77,2.061,0.77,3.467c0,1.185-0.222,2.266-0.664,3.242
		c-0.443,0.977-1.076,1.777-1.901,2.402c-0.483,0.365-1.023,0.628-1.622,0.791c-0.599,0.163-1.445,0.244-2.542,0.244h-1.268h-6.608
		c-0.664,0-1.139-0.169-1.426-0.508c-0.287-0.338-0.43-0.892-0.43-1.66c0-0.69,0.137-1.214,0.41-1.572
		c0.273-0.358,0.674-0.537,1.201-0.537h0.26V4.74h-0.26c-0.527,0-0.928-0.182-1.201-0.547c-0.273-0.364-0.41-0.898-0.41-1.602
		c0-0.755,0.145-1.305,0.438-1.65c0.291-0.345,0.764-0.518,1.418-0.518h6.94c2.122,0,3.733,0.534,4.835,1.602
		c1.102,1.068,1.652,2.63,1.652,4.688c0,1.016-0.168,1.911-0.505,2.686C390.921,10.173,390.421,10.808,389.757,11.302z
		 M382.062,4.623v4.922h2.037c1.236,0,2.109-0.188,2.617-0.566c0.508-0.377,0.762-1.016,0.762-1.914
		c0-0.846-0.229-1.465-0.686-1.855c-0.458-0.391-1.199-0.586-2.227-0.586H382.062z M382.062,13.47v5.957h2.264
		c1.599,0,2.725-0.228,3.379-0.684c0.654-0.456,0.98-1.217,0.98-2.285c0-1.081-0.312-1.849-0.936-2.305
		c-0.623-0.456-1.715-0.684-3.273-0.684H382.062z"/>
</g>
</svg>
