<?xml version="1.0" encoding="utf-8"?>
<!-- Generator: Adobe Illustrator 16.0.4, SVG Export Plug-In . SVG Version: 6.00 Build 0)  -->
<!DOCTYPE svg PUBLIC "-//W3C//DTD SVG 1.1//EN" "http://www.w3.org/Graphics/SVG/1.1/DTD/svg11.dtd">
<svg version="1.1" id="Layer_1" xmlns="http://www.w3.org/2000/svg" xmlns:xlink="http://www.w3.org/1999/xlink" x="0px" y="0px"
	 width="472.799px" height="262.73px" viewBox="0 0 472.799 262.73" enable-background="new 0 0 472.799 262.73"
	 xml:space="preserve">
<polygon fill="none" stroke="#000000" stroke-width="3.9" stroke-miterlimit="10" points="314.913,86.317 392.903,41.291 
	470.894,86.317 470.894,176.373 392.903,221.401 314.913,176.373 "/>
<g>
	<path fill="none" stroke="#000000" stroke-width="3" d="M374.962,109.961"/>
	<path fill="none" stroke="#000000" stroke-width="3" d="M326.733,153.702"/>
	<path fill="none" stroke="#000000" stroke-width="3" d="M324.901,153.702c2.197,0.484,6.432-3.21,8.172-4.634
		c2.51-2.049,12.039-11.204,14.434-13.956c2.074-2.381,21.188-21.547,25.336-23.635c3.076-1.541,5.754-2.139,9.154-2.518
		c6.869-0.76,13.137,0.774,18.084,5.492c2.896,2.76,10.523,11.137,11.961,12.987c2.506,3.22,21.631,22.258,24.266,23.812
		c4.02,2.358,8.061,2.854,12.404,2.493c2.238-0.188,10.777-1.088,13.047-1.293"/>
	<path fill="none" stroke="#000000" stroke-width="3" d="M323.812,112.793c2.084-1.406,8.354-2.99,9.777-3.262
		c3.518-0.679,6.467-0.111,9.788,0.86c2.151,0.627,5.638,3.123,7.38,4.549c2.512,2.047,12.41,11.013,14.807,13.763
		c2.072,2.381,21.188,21.547,25.34,23.634c3.076,1.543,5.752,2.139,9.15,2.518c6.871,0.762,13.135-0.775,18.084-5.491
		c2.895-2.758,10.521-11.135,11.961-12.988c2.506-3.215,21.631-22.258,24.266-23.81c2.51-1.477,5.029-2.225,7.631-2.489"/>
	<line fill="none" stroke="#000000" stroke-width="3" x1="330.618" y1="117.086" x2="330.618" y2="142.717"/>
	<line fill="none" stroke="#000000" stroke-width="3" x1="338.63" y1="117.086" x2="338.63" y2="135.395"/>
	<line fill="none" stroke="#000000" stroke-width="3" x1="346.411" y1="118.115" x2="346.411" y2="126.242"/>
	<line fill="none" stroke="#000000" stroke-width="3" x1="373.876" y1="118.115" x2="373.876" y2="126.242"/>
	<line fill="none" stroke="#000000" stroke-width="3" x1="381.2" y1="117.086" x2="381.2" y2="135.395"/>
	<line fill="none" stroke="#000000" stroke-width="3" x1="389.21" y1="117.086" x2="389.21" y2="142.717"/>
	<line fill="none" stroke="#000000" stroke-width="3" x1="396.763" y1="120.517" x2="396.763" y2="146.379"/>
	<line fill="none" stroke="#000000" stroke-width="3" x1="404.085" y1="128.299" x2="404.085" y2="146.379"/>
	<line fill="none" stroke="#000000" stroke-width="3" x1="411.866" y1="137.338" x2="411.866" y2="144.549"/>
	<line fill="none" stroke="#000000" stroke-width="3" x1="439.558" y1="137.338" x2="439.558" y2="144.549"/>
	<line fill="none" stroke="#000000" stroke-width="3" x1="447.802" y1="128.299" x2="447.802" y2="146.379"/>
	<line fill="none" stroke="#000000" stroke-width="3" x1="455.581" y1="120.517" x2="455.581" y2="146.379"/>
</g>
<polygon fill="none" stroke="#000000" stroke-width="3.9" stroke-miterlimit="10" points="1.731,86.317 79.721,41.291 
	157.71,86.317 157.71,176.373 79.721,221.401 1.731,176.373 "/>
<path fill="none" stroke="#000000" stroke-width="3" stroke-miterlimit="10" d="M16.57,136.651l4.775,4.936l19.892,0.092
	c1.345-2.02,3.644-3.344,6.254-3.344c2.691,0,5.057,1.418,6.385,3.545l20.093,0.16c1.426-4.594,5.092-8.198,9.719-9.545
	l0.016-19.787c-1.025-1.029-1.664-2.449-1.664-4.021c0-3.135,2.543-5.678,5.678-5.678l0.413,0.018l16.956-17.375
	c-0.021-0.209-0.031-0.422-0.031-0.637c0-3.449,2.795-6.242,6.244-6.242c3.448,0,6.242,2.793,6.242,6.242
	c0,3.447-2.794,6.244-6.242,6.244c-0.062,0,0,0,0,0l-17.91,17.078c0.008,0.115,0.01,0.234,0.01,0.35
	c0,1.529-0.604,2.914-1.582,3.938l-0.069,19.869c5.989,1.739,10.367,7.27,10.367,13.826c0,2.457-0.614,4.771-1.701,6.796
	l0.229,0.258l9.254,9.645c2.729,0.246,4.867,2.541,4.867,5.336c0,2.957-2.398,5.357-5.355,5.357c-2.874,0-5.213-2.262-5.352-5.098
	l-9.685-9.525c-1.989,1.039-4.253,1.627-6.655,1.627c-6.684,0-12.306-4.562-13.925-10.737l-20.064,0.08
	c-1.351,2-3.639,3.313-6.235,3.313c-2.61,0-4.905-1.321-6.254-3.339l-27.896,0.086"/>
<polygon fill="none" stroke="#000000" stroke-width="3.9" stroke-miterlimit="10" points="158.323,86.317 236.313,41.291 
	314.303,86.317 314.303,176.373 236.31,221.401 158.321,176.373 "/>
<g>
	<polyline fill="none" stroke="#000000" stroke-miterlimit="10" points="210.553,102.642 168.973,102.642 168.973,95.495 
		210.553,95.495 	"/>
	<polyline fill="none" stroke="#000000" stroke-miterlimit="10" points="218.252,95.495 303.652,95.495 303.652,102.642 
		218.252,102.642 	"/>
	<polygon fill="none" stroke="#000000" stroke-miterlimit="10" points="218.156,95.495 210.754,102.642 210.553,102.642 
		210.553,95.495 210.779,95.495 218.163,102.642 218.252,102.642 218.252,95.495 	"/>
</g>
<rect x="169.48" y="154.102" stroke="#000000" stroke-miterlimit="10" width="2.641" height="12.666"/>
<rect x="216.459" y="155.102" stroke="#000000" stroke-miterlimit="10" width="2.154" height="11.666"/>
<rect x="213.066" y="149.482" stroke="#000000" stroke-miterlimit="10" width="2.64" height="17.286"/>
<rect x="209.917" y="144.683" stroke="#000000" stroke-miterlimit="10" width="2.64" height="22.085"/>
<rect x="206.768" y="147.818" stroke="#000000" stroke-miterlimit="10" width="2.64" height="18.95"/>
<rect x="203.617" y="143.437" stroke="#000000" stroke-miterlimit="10" width="2.641" height="23.331"/>
<rect x="200.469" y="146.162" stroke="#000000" stroke-miterlimit="10" width="2.641" height="20.606"/>
<rect x="197.318" y="150.281" stroke="#000000" stroke-miterlimit="10" width="2.64" height="16.487"/>
<rect x="194.169" y="144.308" stroke="#000000" stroke-miterlimit="10" width="2.64" height="22.46"/>
<rect x="191.018" y="147.818" stroke="#000000" stroke-miterlimit="10" width="2.642" height="18.95"/>
<rect x="187.869" y="154.102" stroke="#000000" stroke-miterlimit="10" width="2.641" height="12.666"/>
<rect x="184.721" y="149.658" stroke="#000000" stroke-miterlimit="10" width="2.64" height="17.11"/>
<rect x="181.57" y="147.224" stroke="#000000" stroke-miterlimit="10" width="2.64" height="19.544"/>
<rect x="178.42" y="151.576" stroke="#000000" stroke-miterlimit="10" width="2.641" height="15.192"/>
<rect x="175.27" y="150.933" stroke="#000000" stroke-miterlimit="10" width="2.642" height="15.835"/>
<rect x="172.121" y="147.818" stroke="#000000" stroke-miterlimit="10" width="2.641" height="18.95"/>
<rect x="266.368" y="154.102" stroke="#000000" stroke-miterlimit="10" width="2.641" height="12.666"/>
<rect x="237.928" y="146.162" stroke="#000000" stroke-miterlimit="10" width="2.153" height="19.983"/>
<rect x="234.783" y="148.859" stroke="#000000" stroke-miterlimit="10" width="2.64" height="17.286"/>
<rect x="231.883" y="144.06" stroke="#000000" stroke-miterlimit="10" width="2.642" height="22.085"/>
<rect x="228.981" y="150.281" stroke="#000000" stroke-miterlimit="10" width="2.641" height="15.864"/>
<rect x="301.015" y="155.102" stroke="#000000" stroke-miterlimit="10" width="2.641" height="11.666"/>
<rect x="297.865" y="146.162" stroke="#000000" stroke-miterlimit="10" width="2.641" height="20.606"/>
<rect x="294.715" y="149.482" stroke="#000000" stroke-miterlimit="10" width="2.643" height="17.286"/>
<rect x="291.566" y="151.576" stroke="#000000" stroke-miterlimit="10" width="2.639" height="15.192"/>
<rect x="288.416" y="147.818" stroke="#000000" stroke-miterlimit="10" width="2.643" height="18.95"/>
<rect x="285.265" y="154.102" stroke="#000000" stroke-miterlimit="10" width="2.642" height="12.666"/>
<rect x="282.117" y="149.658" stroke="#000000" stroke-miterlimit="10" width="2.639" height="17.11"/>
<rect x="278.967" y="151.576" stroke="#000000" stroke-miterlimit="10" width="2.643" height="15.192"/>
<rect x="275.816" y="147.224" stroke="#000000" stroke-miterlimit="10" width="2.641" height="19.544"/>
<rect x="272.669" y="144.308" stroke="#000000" stroke-miterlimit="10" width="2.642" height="22.46"/>
<rect x="269.518" y="147.818" stroke="#000000" stroke-miterlimit="10" width="2.641" height="18.95"/>
<rect x="240.828" y="154.479" stroke="#000000" stroke-miterlimit="10" width="2.153" height="11.666"/>
<rect x="168.973" y="165.981" width="134.683" height="1.574"/>
<g>
	<rect x="187.622" y="120.209" stroke="#000000" stroke-miterlimit="10" width="30.991" height="7.146"/>
	<rect x="228.981" y="120.209" stroke="#000000" stroke-miterlimit="10" width="14.777" height="7.146"/>
	<rect x="266.368" y="120.209" stroke="#000000" stroke-miterlimit="10" width="28.444" height="7.146"/>
	<rect x="218.613" y="122.996" width="10.368" height="1.572"/>
	<rect x="243.761" y="122.995" width="22.607" height="1.573"/>
	<rect x="168.973" y="122.463" stroke="#000000" stroke-miterlimit="10" width="18.388" height="2.64"/>
	<rect x="294.812" y="122.462" stroke="#000000" stroke-miterlimit="10" width="8.84" height="2.641"/>
</g>
<text transform="matrix(0.7725 0 0 1 -0.0957 262.7302)" font-family="'Courier-Bold'" font-size="40" letter-spacing="6.472">OMNIA OMNI TEMPORE</text>
<text transform="matrix(0.7725 0 0 1 39.3076 23.5876)" font-family="'Courier-Bold'" font-size="40" letter-spacing="6.472">HESSELBERTH LAB</text>
</svg>
