<?xml version="1.0" encoding="utf-8"?>
<!-- Generator: Adobe Illustrator 16.0.4, SVG Export Plug-In . SVG Version: 6.00 Build 0)  -->
<!DOCTYPE svg PUBLIC "-//W3C//DTD SVG 1.1//EN" "http://www.w3.org/Graphics/SVG/1.1/DTD/svg11.dtd">
<svg version="1.1" id="Layer_1" xmlns="http://www.w3.org/2000/svg" xmlns:xlink="http://www.w3.org/1999/xlink" x="0px" y="0px"
	 width="472.799px" height="262.73px" viewBox="0 0 472.799 262.73" enable-background="new 0 0 472.799 262.73"
	 xml:space="preserve">
<g>
	<polygon fill="none" stroke="#000000" stroke-width="3.9" stroke-miterlimit="10" points="315,86.317 392.99,41.291 470.98,86.317 
		470.98,176.373 392.99,221.401 315,176.373 	"/>
	<g>
		<path fill="none" stroke="#000000" stroke-width="3" d="M375.049,109.961"/>
		<path fill="none" stroke="#000000" stroke-width="3" d="M326.82,153.702"/>
		<path fill="none" stroke="#000000" stroke-width="3" d="M324.988,153.702c2.197,0.484,6.432-3.21,8.172-4.634
			c2.51-2.049,12.039-11.204,14.434-13.956c2.074-2.381,21.188-21.547,25.336-23.635c3.076-1.541,5.754-2.14,9.154-2.519
			c6.869-0.76,13.137,0.774,18.084,5.492c2.896,2.76,10.522,11.137,11.961,12.987c2.506,3.22,21.631,22.258,24.266,23.812
			c4.021,2.358,8.062,2.854,12.404,2.493c2.238-0.188,10.777-1.088,13.047-1.293"/>
		<path fill="none" stroke="#000000" stroke-width="3" d="M323.898,112.793c2.084-1.405,8.354-2.989,9.777-3.262
			c3.518-0.679,6.467-0.111,9.788,0.86c2.151,0.627,5.638,3.123,7.38,4.549c2.512,2.047,12.41,11.013,14.807,13.763
			c2.072,2.381,21.188,21.547,25.34,23.634c3.076,1.543,5.753,2.14,9.15,2.519c6.871,0.762,13.136-0.775,18.084-5.491
			c2.896-2.758,10.521-11.135,11.961-12.988c2.507-3.215,21.632-22.258,24.267-23.81c2.51-1.478,5.028-2.226,7.631-2.489"/>
		<line fill="none" stroke="#000000" stroke-width="3" x1="330.705" y1="117.086" x2="330.705" y2="142.717"/>
		<line fill="none" stroke="#000000" stroke-width="3" x1="338.717" y1="117.086" x2="338.717" y2="135.395"/>
		<line fill="none" stroke="#000000" stroke-width="3" x1="346.498" y1="118.115" x2="346.498" y2="126.242"/>
		<line fill="none" stroke="#000000" stroke-width="3" x1="373.963" y1="118.115" x2="373.963" y2="126.242"/>
		<line fill="none" stroke="#000000" stroke-width="3" x1="381.287" y1="117.086" x2="381.287" y2="135.395"/>
		<line fill="none" stroke="#000000" stroke-width="3" x1="389.297" y1="117.086" x2="389.297" y2="142.717"/>
		<line fill="none" stroke="#000000" stroke-width="3" x1="396.85" y1="120.517" x2="396.85" y2="146.379"/>
		<line fill="none" stroke="#000000" stroke-width="3" x1="404.172" y1="128.299" x2="404.172" y2="146.379"/>
		<line fill="none" stroke="#000000" stroke-width="3" x1="411.953" y1="137.338" x2="411.953" y2="144.549"/>
		<line fill="none" stroke="#000000" stroke-width="3" x1="439.645" y1="137.338" x2="439.645" y2="144.549"/>
		<line fill="none" stroke="#000000" stroke-width="3" x1="447.889" y1="128.299" x2="447.889" y2="146.379"/>
		<line fill="none" stroke="#000000" stroke-width="3" x1="455.668" y1="120.517" x2="455.668" y2="146.379"/>
	</g>
	<polygon fill="none" stroke="#000000" stroke-width="3.9" stroke-miterlimit="10" points="1.818,86.317 79.809,41.291 
		157.797,86.317 157.797,176.373 79.809,221.401 1.818,176.373 	"/>
	<path fill="none" stroke="#000000" stroke-width="3" stroke-miterlimit="10" d="M16.657,136.651l4.775,4.936l19.892,0.093
		c1.345-2.021,3.644-3.345,6.254-3.345c2.691,0,5.057,1.418,6.385,3.545l20.094,0.16c1.426-4.594,5.092-8.198,9.719-9.545
		l0.016-19.787c-1.024-1.028-1.664-2.449-1.664-4.021c0-3.136,2.543-5.679,5.678-5.679l0.413,0.019l16.956-17.375
		c-0.021-0.209-0.03-0.422-0.03-0.637c0-3.449,2.795-6.242,6.243-6.242s6.242,2.793,6.242,6.242c0,3.446-2.794,6.243-6.242,6.243
		c-0.062,0,0,0,0,0l-17.909,17.078c0.008,0.115,0.01,0.234,0.01,0.351c0,1.528-0.604,2.914-1.582,3.938l-0.069,19.869
		c5.989,1.739,10.367,7.271,10.367,13.826c0,2.457-0.614,4.771-1.701,6.796l0.229,0.258l9.254,9.646
		c2.729,0.246,4.867,2.541,4.867,5.336c0,2.957-2.398,5.356-5.355,5.356c-2.874,0-5.213-2.262-5.352-5.098l-9.686-9.525
		c-1.989,1.039-4.253,1.627-6.655,1.627c-6.684,0-12.306-4.562-13.925-10.736l-20.063,0.08c-1.352,2-3.64,3.312-6.235,3.312
		c-2.61,0-4.905-1.321-6.254-3.339l-27.896,0.086"/>
	<polygon fill="none" stroke="#000000" stroke-width="3.9" stroke-miterlimit="10" points="158.41,86.317 236.4,41.291 
		314.391,86.317 314.391,176.373 236.397,221.401 158.408,176.373 	"/>
	<g>
		<polyline fill="none" stroke="#000000" stroke-miterlimit="10" points="210.641,102.642 169.061,102.642 169.061,95.495 
			210.641,95.495 		"/>
		<polyline fill="none" stroke="#000000" stroke-miterlimit="10" points="218.339,95.495 303.738,95.495 303.738,102.642 
			218.339,102.642 		"/>
		<polygon fill="none" stroke="#000000" stroke-miterlimit="10" points="218.243,95.495 210.841,102.642 210.641,102.642 
			210.641,95.495 210.866,95.495 218.25,102.642 218.339,102.642 218.339,95.495 		"/>
	</g>
	<rect x="169.567" y="154.102" stroke="#000000" stroke-miterlimit="10" width="2.641" height="12.666"/>
	<rect x="216.546" y="155.102" stroke="#000000" stroke-miterlimit="10" width="2.154" height="11.666"/>
	<rect x="213.153" y="149.482" stroke="#000000" stroke-miterlimit="10" width="2.64" height="17.286"/>
	<rect x="210.004" y="144.683" stroke="#000000" stroke-miterlimit="10" width="2.641" height="22.085"/>
	<rect x="206.855" y="147.818" stroke="#000000" stroke-miterlimit="10" width="2.64" height="18.95"/>
	<rect x="203.704" y="143.437" stroke="#000000" stroke-miterlimit="10" width="2.641" height="23.331"/>
	<rect x="200.556" y="146.162" stroke="#000000" stroke-miterlimit="10" width="2.642" height="20.606"/>
	<rect x="197.405" y="150.281" stroke="#000000" stroke-miterlimit="10" width="2.64" height="16.487"/>
	<rect x="194.256" y="144.308" stroke="#000000" stroke-miterlimit="10" width="2.641" height="22.46"/>
	<rect x="191.105" y="147.818" stroke="#000000" stroke-miterlimit="10" width="2.642" height="18.95"/>
	<rect x="187.956" y="154.102" stroke="#000000" stroke-miterlimit="10" width="2.641" height="12.666"/>
	<rect x="184.809" y="149.658" stroke="#000000" stroke-miterlimit="10" width="2.64" height="17.11"/>
	<rect x="181.657" y="147.224" stroke="#000000" stroke-miterlimit="10" width="2.64" height="19.544"/>
	<rect x="178.507" y="151.576" stroke="#000000" stroke-miterlimit="10" width="2.642" height="15.192"/>
	<rect x="175.357" y="150.933" stroke="#000000" stroke-miterlimit="10" width="2.642" height="15.835"/>
	<rect x="172.208" y="147.818" stroke="#000000" stroke-miterlimit="10" width="2.642" height="18.95"/>
	<rect x="266.455" y="154.102" stroke="#000000" stroke-miterlimit="10" width="2.641" height="12.666"/>
	<rect x="238.016" y="146.162" stroke="#000000" stroke-miterlimit="10" width="2.152" height="19.983"/>
	<rect x="234.87" y="148.859" stroke="#000000" stroke-miterlimit="10" width="2.64" height="17.286"/>
	<rect x="231.97" y="144.06" stroke="#000000" stroke-miterlimit="10" width="2.643" height="22.085"/>
	<rect x="229.068" y="150.281" stroke="#000000" stroke-miterlimit="10" width="2.641" height="15.864"/>
	<rect x="301.102" y="155.102" stroke="#000000" stroke-miterlimit="10" width="2.642" height="11.666"/>
	<rect x="297.952" y="146.162" stroke="#000000" stroke-miterlimit="10" width="2.641" height="20.606"/>
	<rect x="294.802" y="149.482" stroke="#000000" stroke-miterlimit="10" width="2.644" height="17.286"/>
	<rect x="291.652" y="151.576" stroke="#000000" stroke-miterlimit="10" width="2.64" height="15.192"/>
	<rect x="288.503" y="147.818" stroke="#000000" stroke-miterlimit="10" width="2.644" height="18.95"/>
	<rect x="285.352" y="154.102" stroke="#000000" stroke-miterlimit="10" width="2.643" height="12.666"/>
	<rect x="282.204" y="149.658" stroke="#000000" stroke-miterlimit="10" width="2.639" height="17.11"/>
	<rect x="279.054" y="151.576" stroke="#000000" stroke-miterlimit="10" width="2.644" height="15.192"/>
	<rect x="275.902" y="147.224" stroke="#000000" stroke-miterlimit="10" width="2.642" height="19.544"/>
	<rect x="272.756" y="144.308" stroke="#000000" stroke-miterlimit="10" width="2.643" height="22.46"/>
	<rect x="269.605" y="147.818" stroke="#000000" stroke-miterlimit="10" width="2.641" height="18.95"/>
	<rect x="240.915" y="154.479" stroke="#000000" stroke-miterlimit="10" width="2.153" height="11.666"/>
	<rect x="169.061" y="165.981" width="134.683" height="1.574"/>
	<g>
		<rect x="187.709" y="120.209" stroke="#000000" stroke-miterlimit="10" width="30.991" height="7.146"/>
		<rect x="229.068" y="120.209" stroke="#000000" stroke-miterlimit="10" width="14.776" height="7.146"/>
		<rect x="266.455" y="120.209" stroke="#000000" stroke-miterlimit="10" width="28.443" height="7.146"/>
		<rect x="218.7" y="122.996" width="10.368" height="1.572"/>
		<rect x="243.848" y="122.995" width="22.607" height="1.573"/>
		<rect x="169.061" y="122.463" stroke="#000000" stroke-miterlimit="10" width="18.388" height="2.641"/>
		<rect x="294.898" y="122.462" stroke="#000000" stroke-miterlimit="10" width="8.84" height="2.642"/>
	</g>
</g>
<text transform="matrix(0.7725 0 0 1 24.7383 262.7302)" font-family="'Courier-Bold'" font-size="40" letter-spacing="5.178">OMNIA OMNI TEMPORE</text>
<text transform="matrix(0.7725 0 0 1 60.0151 23.5876)" font-family="'Courier-Bold'" font-size="40" letter-spacing="5.178">HESSELBERTH LAB</text>
</svg>
