<?xml version="1.0" encoding="utf-8"?>
<!-- Generator: Adobe Illustrator 16.0.4, SVG Export Plug-In . SVG Version: 6.00 Build 0)  -->
<!DOCTYPE svg PUBLIC "-//W3C//DTD SVG 1.1//EN" "http://www.w3.org/Graphics/SVG/1.1/DTD/svg11.dtd">
<svg version="1.1" id="Layer_1" xmlns="http://www.w3.org/2000/svg" xmlns:xlink="http://www.w3.org/1999/xlink" x="0px" y="0px"
	 width="163.935px" height="188.525px" viewBox="314.959 213.992 163.935 188.525"
	 enable-background="new 314.959 213.992 163.935 188.525" xml:space="preserve">
<polygon fill="none" stroke="#010101" stroke-width="3.9" stroke-miterlimit="10" points="318.913,262.317 396.903,217.291 
	474.894,262.317 474.894,352.373 396.903,397.401 318.913,352.373 "/>
<g>
	<path fill="none" stroke="#010101" stroke-width="3" d="M378.962,285.961"/>
	<path fill="none" stroke="#010101" stroke-width="3" d="M330.733,329.702"/>
	<path fill="none" stroke="#010101" stroke-width="3" d="M328.901,329.702c2.197,0.483,6.432-3.21,8.172-4.634
		c2.51-2.05,12.039-11.204,14.434-13.956c2.074-2.381,21.188-21.547,25.336-23.635c3.076-1.541,5.754-2.139,9.154-2.518
		c6.869-0.76,13.137,0.774,18.084,5.492c2.896,2.76,10.522,11.137,11.961,12.987c2.506,3.22,21.631,22.258,24.266,23.812
		c4.021,2.358,8.062,2.854,12.404,2.493c2.238-0.188,10.777-1.088,13.047-1.293"/>
	<path fill="none" stroke="#010101" stroke-width="3" d="M327.812,288.793c2.084-1.406,8.354-2.99,9.777-3.262
		c3.518-0.679,6.467-0.111,9.788,0.86c2.151,0.627,5.638,3.123,7.38,4.549c2.512,2.047,12.41,11.013,14.807,13.763
		c2.072,2.381,21.188,21.547,25.34,23.634c3.077,1.543,5.752,2.139,9.15,2.519c6.871,0.762,13.136-0.775,18.084-5.491
		c2.896-2.758,10.521-11.136,11.961-12.988c2.507-3.215,21.632-22.258,24.267-23.81c2.51-1.477,5.028-2.225,7.631-2.489"/>
	<line fill="none" stroke="#010101" stroke-width="3" x1="334.618" y1="293.086" x2="334.618" y2="318.717"/>
	<line fill="none" stroke="#010101" stroke-width="3" x1="342.63" y1="293.086" x2="342.63" y2="311.396"/>
	<line fill="none" stroke="#010101" stroke-width="3" x1="350.411" y1="294.115" x2="350.411" y2="302.242"/>
	<line fill="none" stroke="#010101" stroke-width="3" x1="377.876" y1="294.115" x2="377.876" y2="302.242"/>
	<line fill="none" stroke="#010101" stroke-width="3" x1="385.2" y1="293.086" x2="385.2" y2="311.396"/>
	<line fill="none" stroke="#010101" stroke-width="3" x1="393.21" y1="293.086" x2="393.21" y2="318.717"/>
	<line fill="none" stroke="#010101" stroke-width="3" x1="400.763" y1="296.518" x2="400.763" y2="322.379"/>
	<line fill="none" stroke="#010101" stroke-width="3" x1="408.085" y1="304.299" x2="408.085" y2="322.379"/>
	<line fill="none" stroke="#010101" stroke-width="3" x1="415.866" y1="313.338" x2="415.866" y2="320.549"/>
	<line fill="none" stroke="#010101" stroke-width="3" x1="443.558" y1="313.338" x2="443.558" y2="320.549"/>
	<line fill="none" stroke="#010101" stroke-width="3" x1="451.802" y1="304.299" x2="451.802" y2="322.379"/>
	<line fill="none" stroke="#010101" stroke-width="3" x1="459.581" y1="296.518" x2="459.581" y2="322.379"/>
</g>
</svg>
