<?xml version="1.0" encoding="utf-8"?>
<!-- Generator: Adobe Illustrator 16.0.4, SVG Export Plug-In . SVG Version: 6.00 Build 0)  -->
<!DOCTYPE svg PUBLIC "-//W3C//DTD SVG 1.1//EN" "http://www.w3.org/Graphics/SVG/1.1/DTD/svg11.dtd">
<svg version="1.1" id="Layer_1" xmlns="http://www.w3.org/2000/svg" xmlns:xlink="http://www.w3.org/1999/xlink" x="0px" y="0px"
	 width="167px" height="190px" viewBox="312.5 212.5 167 190" enable-background="new 312.5 212.5 167 190" xml:space="preserve">
<polygon fill="none" stroke="#010101" stroke-width="3.9" stroke-miterlimit="10" points="318.323,262.317 396.312,217.291 
	474.303,262.317 474.303,352.373 396.31,397.401 318.321,352.373 "/>
<g>
	<polyline fill="none" stroke="#010101" stroke-miterlimit="10" points="370.553,278.643 328.973,278.643 328.973,271.495 
		370.553,271.495 	"/>
	<polyline fill="none" stroke="#010101" stroke-miterlimit="10" points="378.252,271.495 463.652,271.495 463.652,278.643 
		378.252,278.643 	"/>
	<polygon fill="none" stroke="#010101" stroke-miterlimit="10" points="378.156,271.495 370.754,278.643 370.553,278.643 
		370.553,271.495 370.779,271.495 378.163,278.643 378.252,278.643 378.252,271.495 	"/>
</g>
<rect x="329.48" y="330.103" fill="#010101" stroke="#010101" stroke-miterlimit="10" width="2.641" height="12.666"/>
<rect x="376.459" y="331.103" fill="#010101" stroke="#010101" stroke-miterlimit="10" width="2.154" height="11.666"/>
<rect x="373.066" y="325.482" fill="#010101" stroke="#010101" stroke-miterlimit="10" width="2.64" height="17.285"/>
<rect x="369.917" y="320.684" fill="#010101" stroke="#010101" stroke-miterlimit="10" width="2.64" height="22.085"/>
<rect x="366.768" y="323.818" fill="#010101" stroke="#010101" stroke-miterlimit="10" width="2.64" height="18.949"/>
<rect x="363.617" y="319.438" fill="#010101" stroke="#010101" stroke-miterlimit="10" width="2.641" height="23.331"/>
<rect x="360.469" y="322.162" fill="#010101" stroke="#010101" stroke-miterlimit="10" width="2.641" height="20.605"/>
<rect x="357.318" y="326.281" fill="#010101" stroke="#010101" stroke-miterlimit="10" width="2.64" height="16.486"/>
<rect x="354.169" y="320.309" fill="#010101" stroke="#010101" stroke-miterlimit="10" width="2.64" height="22.46"/>
<rect x="351.018" y="323.818" fill="#010101" stroke="#010101" stroke-miterlimit="10" width="2.642" height="18.949"/>
<rect x="347.869" y="330.103" fill="#010101" stroke="#010101" stroke-miterlimit="10" width="2.641" height="12.666"/>
<rect x="344.721" y="325.658" fill="#010101" stroke="#010101" stroke-miterlimit="10" width="2.64" height="17.109"/>
<rect x="341.57" y="323.225" fill="#010101" stroke="#010101" stroke-miterlimit="10" width="2.64" height="19.544"/>
<rect x="338.42" y="327.576" fill="#010101" stroke="#010101" stroke-miterlimit="10" width="2.641" height="15.191"/>
<rect x="335.27" y="326.934" fill="#010101" stroke="#010101" stroke-miterlimit="10" width="2.642" height="15.835"/>
<rect x="332.121" y="323.818" fill="#010101" stroke="#010101" stroke-miterlimit="10" width="2.641" height="18.949"/>
<rect x="426.368" y="330.103" fill="#010101" stroke="#010101" stroke-miterlimit="10" width="2.641" height="12.666"/>
<rect x="397.928" y="322.162" fill="#010101" stroke="#010101" stroke-miterlimit="10" width="2.153" height="19.982"/>
<rect x="394.783" y="324.859" fill="#010101" stroke="#010101" stroke-miterlimit="10" width="2.64" height="17.285"/>
<rect x="391.883" y="320.061" fill="#010101" stroke="#010101" stroke-miterlimit="10" width="2.642" height="22.086"/>
<rect x="388.981" y="326.281" fill="#010101" stroke="#010101" stroke-miterlimit="10" width="2.641" height="15.863"/>
<rect x="461.015" y="331.103" fill="#010101" stroke="#010101" stroke-miterlimit="10" width="2.642" height="11.666"/>
<rect x="457.865" y="322.162" fill="#010101" stroke="#010101" stroke-miterlimit="10" width="2.641" height="20.605"/>
<rect x="454.715" y="325.482" fill="#010101" stroke="#010101" stroke-miterlimit="10" width="2.644" height="17.285"/>
<rect x="451.566" y="327.576" fill="#010101" stroke="#010101" stroke-miterlimit="10" width="2.639" height="15.191"/>
<rect x="448.416" y="323.818" fill="#010101" stroke="#010101" stroke-miterlimit="10" width="2.643" height="18.949"/>
<rect x="445.265" y="330.103" fill="#010101" stroke="#010101" stroke-miterlimit="10" width="2.643" height="12.666"/>
<rect x="442.117" y="325.658" fill="#010101" stroke="#010101" stroke-miterlimit="10" width="2.639" height="17.109"/>
<rect x="438.967" y="327.576" fill="#010101" stroke="#010101" stroke-miterlimit="10" width="2.644" height="15.191"/>
<rect x="435.816" y="323.225" fill="#010101" stroke="#010101" stroke-miterlimit="10" width="2.641" height="19.544"/>
<rect x="432.669" y="320.309" fill="#010101" stroke="#010101" stroke-miterlimit="10" width="2.642" height="22.46"/>
<rect x="429.518" y="323.818" fill="#010101" stroke="#010101" stroke-miterlimit="10" width="2.642" height="18.949"/>
<rect x="400.828" y="330.479" fill="#010101" stroke="#010101" stroke-miterlimit="10" width="2.153" height="11.666"/>
<rect x="328.973" y="341.981" fill="#010101" width="134.683" height="1.573"/>
<g>
	<rect x="347.622" y="296.209" fill="#010101" stroke="#010101" stroke-miterlimit="10" width="30.991" height="7.146"/>
	<rect x="388.981" y="296.209" fill="#010101" stroke="#010101" stroke-miterlimit="10" width="14.777" height="7.146"/>
	<rect x="426.368" y="296.209" fill="#010101" stroke="#010101" stroke-miterlimit="10" width="28.444" height="7.146"/>
	<rect x="378.613" y="298.996" fill="#010101" width="10.368" height="1.572"/>
	<rect x="403.761" y="298.995" fill="#010101" width="22.607" height="1.573"/>
	<rect x="328.973" y="298.463" fill="#010101" stroke="#010101" stroke-miterlimit="10" width="18.388" height="2.64"/>
	<rect x="454.812" y="298.462" fill="#010101" stroke="#010101" stroke-miterlimit="10" width="8.84" height="2.641"/>
</g>
</svg>
