<?xml version="1.0" encoding="utf-8"?>
<!-- Generator: Adobe Illustrator 24.3.0, SVG Export Plug-In . SVG Version: 6.00 Build 0)  -->
<svg version="1.1" id="Layer_1" xmlns="http://www.w3.org/2000/svg" xmlns:xlink="http://www.w3.org/1999/xlink" x="0px" y="0px"
	 viewBox="0 0 160.5 187" style="enable-background:new 0 0 160.5 187;" xml:space="preserve">
<style type="text/css">
	.st0{fill:none;stroke:#FFFFFF;stroke-width:3.9;stroke-miterlimit:10;}
	.st1{clip-path:url(#SVGID_2_);fill:none;stroke:#FFFFFF;stroke-width:2.5;stroke-miterlimit:10;}
	.st2{clip-path:url(#SVGID_4_);fill:none;stroke:#FFFFFF;stroke-miterlimit:10;}
	.st3{clip-path:url(#SVGID_6_);fill:none;stroke:#FFFFFF;stroke-miterlimit:10;}
	.st4{clip-path:url(#SVGID_8_);fill:#FFFFFF;stroke:#FFFFFF;stroke-width:0.6753;stroke-miterlimit:10;}
	.st5{clip-path:url(#SVGID_10_);fill:#FFFFFF;stroke:#FFFFFF;stroke-width:0.6753;stroke-miterlimit:10;}
	.st6{clip-path:url(#SVGID_12_);fill:#FFFFFF;stroke:#FFFFFF;stroke-width:0.6753;stroke-miterlimit:10;}
	.st7{clip-path:url(#SVGID_14_);fill:none;stroke:#FFFFFF;stroke-width:0.6753;stroke-miterlimit:10;}
	.st8{clip-path:url(#SVGID_16_);fill:#FFFFFF;}
	.st9{clip-path:url(#SVGID_18_);}
	.st10{fill:none;stroke:#FFFFFF;stroke-width:0.6753;stroke-miterlimit:10;}
	.st11{fill:#FFFFFF;}
	.st12{clip-path:url(#SVGID_20_);fill:#FFFFFF;stroke:#FFFFFF;stroke-width:0.6753;stroke-miterlimit:10;}
	.st13{clip-path:url(#SVGID_22_);}
</style>
<polygon class="st0" points="2.3,48.5 80.2,3.5 158.2,48.5 158.2,138.5 80.2,183.6 2.3,138.5 "/>
<g>
	<defs>
		<polygon id="SVGID_1_" points="150.8,49.9 122.5,49.9 122.5,34.4 38.3,34.4 38.3,49.9 10,49.9 10,135.7 38.3,135.7 38.3,151.3 
			122.5,151.3 122.5,135.7 150.8,135.7 		"/>
	</defs>
	<clipPath id="SVGID_2_">
		<use xlink:href="#SVGID_1_"  style="overflow:visible;"/>
	</clipPath>
	<polygon class="st1" points="116.5,23.6 92.2,9.6 92.2,80.6 68.6,80.6 68.6,9.6 44.3,23.6 44.3,80.6 2.4,80.6 2.4,105 44.3,105 
		44.3,162 67.3,175.3 68.6,175.3 68.6,105 92.2,105 92.2,176 116.5,162 116.5,105 158.4,105 158.4,80.6 116.5,80.6 	"/>
</g>
<g>
	<defs>
		<polygon id="SVGID_3_" points="150.8,49.9 122.5,49.9 122.5,34.4 38.3,34.4 38.3,49.9 10,49.9 10,135.7 38.3,135.7 38.3,151.3 
			122.5,151.3 122.5,135.7 150.8,135.7 		"/>
	</defs>
	<clipPath id="SVGID_4_">
		<use xlink:href="#SVGID_3_"  style="overflow:visible;"/>
	</clipPath>
	<circle class="st2" cx="124.3" cy="92.8" r="11.2"/>
</g>
<g>
	<defs>
		<polygon id="SVGID_5_" points="150.8,49.9 122.5,49.9 122.5,34.4 38.3,34.4 38.3,49.9 10,49.9 10,135.7 38.3,135.7 38.3,151.3 
			122.5,151.3 122.5,135.7 150.8,135.7 		"/>
	</defs>
	<clipPath id="SVGID_6_">
		<use xlink:href="#SVGID_5_"  style="overflow:visible;"/>
	</clipPath>
	<path class="st3" d="M91.3,104.6L91.3,104.6c6.7,0,12.2-5.2,12.2-11.7c0-6.5-5.4-11.7-12.2-11.7v0"/>
</g>
<g>
	<defs>
		<polygon id="SVGID_7_" points="150.8,49.9 122.5,49.9 122.5,34.4 38.3,34.4 38.3,49.9 10,49.9 10,135.7 38.3,135.7 38.3,151.3 
			122.5,151.3 122.5,135.7 150.8,135.7 		"/>
	</defs>
	<clipPath id="SVGID_8_">
		<use xlink:href="#SVGID_7_"  style="overflow:visible;"/>
	</clipPath>
	<circle class="st4" cx="20.7" cy="93.1" r="4.9"/>
</g>
<g>
	<defs>
		<polygon id="SVGID_9_" points="150.8,49.9 122.5,49.9 122.5,34.4 38.3,34.4 38.3,49.9 10,49.9 10,135.7 38.3,135.7 38.3,151.3 
			122.5,151.3 122.5,135.7 150.8,135.7 		"/>
	</defs>
	<clipPath id="SVGID_10_">
		<use xlink:href="#SVGID_9_"  style="overflow:visible;"/>
	</clipPath>
	<circle class="st5" cx="88.4" cy="92.2" r="4.9"/>
</g>
<g>
	<defs>
		<polygon id="SVGID_11_" points="150.8,49.9 122.5,49.9 122.5,34.4 38.3,34.4 38.3,49.9 10,49.9 10,135.7 38.3,135.7 38.3,151.3 
			122.5,151.3 122.5,135.7 150.8,135.7 		"/>
	</defs>
	<clipPath id="SVGID_12_">
		<use xlink:href="#SVGID_11_"  style="overflow:visible;"/>
	</clipPath>
	<circle class="st6" cx="125.3" cy="92.2" r="4.9"/>
</g>
<g>
	<defs>
		<polygon id="SVGID_13_" points="150.8,49.9 122.5,49.9 122.5,34.4 38.3,34.4 38.3,49.9 10,49.9 10,135.7 38.3,135.7 38.3,151.3 
			122.5,151.3 122.5,135.7 150.8,135.7 		"/>
	</defs>
	<clipPath id="SVGID_14_">
		<use xlink:href="#SVGID_13_"  style="overflow:visible;"/>
	</clipPath>
	<circle class="st7" cx="96.6" cy="90.3" r="2.7"/>
</g>
<g>
	<defs>
		<polygon id="SVGID_15_" points="150.8,49.9 122.5,49.9 122.5,34.4 38.3,34.4 38.3,49.9 10,49.9 10,135.7 38.3,135.7 38.3,151.3 
			122.5,151.3 122.5,135.7 150.8,135.7 		"/>
	</defs>
	<clipPath id="SVGID_16_">
		<use xlink:href="#SVGID_15_"  style="overflow:visible;"/>
	</clipPath>
	<circle class="st8" cx="96.6" cy="90.8" r="1.3"/>
</g>
<g>
	<defs>
		<polygon id="SVGID_17_" points="150.8,49.9 122.5,49.9 122.5,34.4 38.3,34.4 38.3,49.9 10,49.9 10,135.7 38.3,135.7 38.3,151.3 
			122.5,151.3 122.5,135.7 150.8,135.7 		"/>
	</defs>
	<clipPath id="SVGID_18_">
		<use xlink:href="#SVGID_17_"  style="overflow:visible;"/>
	</clipPath>
	<g class="st9">
		<circle class="st10" cx="56.3" cy="135.8" r="2.7"/>
		<circle class="st11" cx="56.3" cy="136.3" r="1.3"/>
	</g>
</g>
<g>
	<defs>
		<polygon id="SVGID_19_" points="150.8,49.9 122.5,49.9 122.5,34.4 38.3,34.4 38.3,49.9 10,49.9 10,135.7 38.3,135.7 38.3,151.3 
			122.5,151.3 122.5,135.7 150.8,135.7 		"/>
	</defs>
	<clipPath id="SVGID_20_">
		<use xlink:href="#SVGID_19_"  style="overflow:visible;"/>
	</clipPath>
	<circle class="st12" cx="56.3" cy="92.2" r="4.9"/>
</g>
<g>
	<defs>
		<polygon id="SVGID_21_" points="150.8,49.9 122.5,49.9 122.5,34.4 38.3,34.4 38.3,49.9 10,49.9 10,135.7 38.3,135.7 38.3,151.3 
			122.5,151.3 122.5,135.7 150.8,135.7 		"/>
	</defs>
	<clipPath id="SVGID_22_">
		<use xlink:href="#SVGID_21_"  style="overflow:visible;"/>
	</clipPath>
	<g class="st13">
		<circle class="st10" cx="56.3" cy="70.8" r="2.7"/>
		<circle class="st11" cx="56.3" cy="71.3" r="1.3"/>
	</g>
</g>
</svg>
